<?xml version="1.0" standalone="no"?>
<!DOCTYPE svg PUBLIC "-//W3C//DTD SVG 20010904//EN"
 "http://www.w3.org/TR/2001/REC-SVG-20010904/DTD/svg10.dtd">
<svg version="1.0" xmlns="http://www.w3.org/2000/svg"
 width="800.000000pt" height="800.000000pt" viewBox="0 0 800.000000 800.000000"
 preserveAspectRatio="xMidYMid meet">

<g transform="translate(0.000000,800.000000) scale(0.100000,-0.100000)"
fill="#000000" stroke="none">
<path d="M1108 7966 c-16 -19 -29 -43 -31 -53 -1 -10 -7 -25 -12 -33 -17 -27
-44 -75 -59 -106 -8 -17 -31 -43 -50 -58 -20 -15 -36 -32 -36 -38 0 -13 -68
-78 -81 -78 -5 0 -9 -4 -9 -9 0 -5 -14 -14 -30 -21 -17 -7 -35 -21 -41 -32 -5
-10 -14 -16 -20 -13 -5 4 -9 -2 -9 -13 0 -10 -11 -24 -25 -30 -14 -7 -28 -19
-32 -27 -3 -9 -22 -25 -42 -36 -20 -10 -45 -25 -56 -31 -60 -37 -71 -42 -79
-40 -5 2 -12 -2 -16 -8 -4 -6 -25 -12 -46 -13 -36 -1 -45 4 -91 51 -54 56
-158 118 -169 101 -3 -6 -25 9 -49 34 -29 30 -54 46 -79 51 -27 5 -36 11 -32
22 3 8 1 14 -5 14 -6 0 -9 -274 -7 -802 3 -782 4 -804 23 -838 11 -19 23 -36
28 -38 4 -2 7 -12 7 -23 0 -23 17 -24 42 -2 17 15 18 15 18 -13 0 -31 -20 -84
-32 -84 -3 0 -4 -9 -1 -20 4 -15 9 -17 23 -10 17 9 19 4 25 -48 3 -31 13 -95
21 -142 21 -115 21 -115 7 -113 -16 3 -5 -56 13 -75 7 -7 16 -34 19 -60 3 -26
9 -58 12 -72 4 -14 7 -46 8 -72 0 -29 7 -54 18 -66 9 -10 17 -24 17 -30 0 -7
7 -9 17 -5 13 5 15 2 10 -11 -10 -25 2 -40 19 -25 16 13 15 20 19 -98 2 -46 0
-85 -5 -88 -4 -3 -6 -15 -2 -28 7 -29 80 -145 97 -155 20 -11 28 -72 14 -99
-10 -18 -10 -29 0 -50 11 -23 9 -31 -19 -69 -28 -39 -29 -44 -14 -59 9 -8 24
-13 34 -10 16 5 16 2 7 -34 -6 -22 -15 -37 -20 -34 -5 3 -6 -4 -2 -16 4 -14 0
-30 -13 -46 -27 -34 -38 -96 -19 -110 23 -17 35 -48 30 -82 -4 -26 -2 -33 11
-33 14 0 37 -36 40 -62 1 -3 4 -10 8 -14 5 -4 8 -20 8 -35 0 -30 14 -46 25
-29 4 6 10 8 15 5 4 -3 11 5 15 18 4 15 8 18 12 9 3 -8 0 -19 -6 -25 -6 -6
-11 -21 -11 -34 0 -13 -4 -23 -8 -23 -5 0 -14 -11 -22 -24 -10 -20 -10 -28 3
-46 8 -12 12 -30 9 -42 -3 -11 1 -24 9 -29 11 -7 12 -12 2 -28 -10 -16 -9 -22
8 -37 12 -11 19 -30 19 -54 0 -22 7 -43 16 -51 9 -7 14 -22 11 -36 -2 -13 0
-23 4 -23 14 0 49 -33 49 -47 0 -6 10 -13 23 -15 21 -3 22 -7 20 -78 -6 -179
-5 -389 1 -440 4 -30 9 -84 11 -120 5 -102 4 -97 20 -76 12 16 14 12 11 -44
-2 -38 -8 -65 -16 -70 -15 -9 -16 -53 -5 -113 4 -25 3 -43 -5 -52 -9 -10 -9
-19 -2 -27 5 -7 8 -33 6 -58 -3 -25 -6 -65 -7 -90 -1 -25 -6 -51 -11 -59 -6
-10 -6 -16 2 -19 17 -5 15 -22 -3 -22 -8 0 -15 -4 -15 -10 0 -5 6 -10 13 -10
15 0 21 -96 7 -105 -14 -9 -12 -63 1 -67 9 -3 9 -9 1 -25 -8 -14 -8 -23 -2
-25 6 -2 15 -32 20 -68 15 -96 41 -294 50 -380 24 -213 32 -288 32 -312 1 -16
4 -28 8 -28 5 0 6 -8 3 -18 -2 -11 2 -34 10 -53 8 -20 12 -56 10 -87 -3 -34 0
-52 7 -52 8 0 11 -19 10 -52 -2 -29 -2 -55 0 -58 3 -7 7 -38 13 -90 3 -24 10
-46 16 -48 6 -2 11 -13 11 -23 0 -11 -4 -17 -10 -14 -14 8 -13 -48 1 -62 18
-18 2 -52 -23 -45 -18 4 -20 2 -16 -16 3 -12 1 -23 -6 -25 -7 -2 -10 -24 -8
-61 3 -56 3 -57 -23 -50 -20 5 -24 3 -19 -10 4 -12 0 -16 -15 -16 -14 0 -21
-6 -21 -19 0 -28 -18 -36 -39 -17 -10 9 -21 13 -25 9 -4 -4 -13 -8 -19 -8 -20
-1 -71 -29 -84 -45 -9 -11 -9 -17 0 -22 9 -6 8 -8 -1 -8 -9 0 -11 -7 -7 -19 5
-18 2 -19 -32 -15 -31 4 -35 3 -20 -6 20 -13 14 -30 -12 -30 -11 0 -24 -12
-31 -30 -8 -18 -20 -30 -31 -30 -11 0 -19 -4 -19 -10 0 -5 5 -10 10 -10 19 0
10 -42 -9 -47 -11 -3 -22 -11 -25 -19 -5 -12 139 -14 978 -14 778 0 985 3 989
13 4 9 6 9 6 0 1 -8 15 -13 38 -13 27 0 34 3 26 11 -6 6 -9 18 -6 27 4 10 2
13 -5 8 -6 -3 -13 -2 -17 4 -3 5 -1 10 6 10 8 0 8 4 -1 15 -10 12 -15 13 -21
3 -4 -6 -5 -16 -3 -20 9 -14 -24 -20 -46 -8 -15 8 -19 17 -14 32 5 18 3 20
-17 15 -15 -4 -30 0 -41 10 -15 13 -18 13 -18 2 -1 -10 -5 -8 -15 5 -13 18
-15 18 -21 2 -4 -9 -13 -15 -20 -12 -8 3 -14 1 -14 -4 0 -17 -25 0 -36 25 -9
19 -9 27 2 36 17 14 35 3 27 -19 -5 -15 -4 -15 13 2 14 13 15 20 7 23 -19 7
-16 24 9 50 25 27 17 44 -10 20 -24 -22 -29 -21 -35 4 -3 12 -10 18 -16 14 -6
-3 -9 -10 -6 -15 3 -5 -4 -19 -15 -30 -11 -11 -25 -32 -30 -45 -5 -14 -14 -25
-20 -25 -17 0 -11 26 10 45 11 10 20 27 20 38 0 19 -1 19 -18 4 -10 -10 -22
-17 -27 -17 -5 0 -17 -7 -27 -17 -10 -9 -21 -13 -25 -10 -4 4 2 13 12 20 25
19 16 37 -12 26 -13 -5 -23 -17 -23 -27 0 -10 -11 -31 -24 -46 l-23 -28 2 45
c1 25 -2 52 -7 59 -6 9 -8 7 -6 -7 3 -39 -2 -65 -13 -65 -7 0 -8 14 -4 40 7
44 2 49 -23 23 -16 -16 -17 -16 -20 0 -2 9 -10 17 -18 17 -16 0 -19 -16 -4
-25 13 -8 13 -45 -1 -45 -5 0 -7 4 -4 10 3 5 1 20 -6 32 l-12 22 -18 -23 -19
-23 0 25 c0 14 6 27 13 30 9 3 9 7 -1 19 -15 19 -52 12 -52 -9 0 -8 -4 -11
-10 -8 -5 3 -7 19 -4 34 7 34 -11 51 -21 20 -4 -11 -13 -18 -20 -16 -7 3 -18
0 -24 -6 -8 -8 -14 -6 -24 7 -12 17 -14 17 -20 2 -6 -16 -37 -23 -37 -8 -1 4
12 33 27 64 28 57 53 75 53 38 0 -18 1 -18 23 3 14 14 18 23 10 25 -7 2 -14
13 -15 25 -4 72 -2 87 12 87 11 1 10 4 -4 15 -25 19 -41 19 -60 -1 -9 -8 -16
-11 -16 -5 0 5 4 12 10 16 5 3 6 13 3 23 -6 14 -4 15 9 4 14 -11 16 -7 12 45
-6 86 -20 122 -46 115 -11 -3 -23 -14 -26 -24 -5 -20 -29 -19 -24 1 1 6 -3 11
-9 11 -6 0 -8 -9 -4 -20 9 -28 -7 -25 -34 6 -19 22 -20 25 -4 22 13 -2 17 2
15 17 -7 38 -52 49 -52 13 0 -16 -3 -19 -11 -11 -11 11 7 53 23 53 5 0 3 9 -4
20 -7 11 -20 20 -28 20 -12 -1 -12 -3 3 -14 27 -21 20 -29 -18 -23 -30 5 -35
3 -35 -14 0 -10 7 -19 15 -19 8 0 15 -8 15 -18 0 -19 -34 -24 -57 -9 -17 11
-26 -9 -13 -32 5 -11 10 -32 10 -47 0 -15 3 -25 6 -21 4 3 13 0 21 -8 8 -8 26
-15 39 -15 32 0 23 -16 -13 -23 -33 -6 -53 1 -53 19 0 8 -4 14 -10 14 -5 0
-10 9 -10 19 0 11 -9 23 -20 26 -11 3 -20 15 -20 26 0 11 -7 19 -17 19 -17 1
-17 1 0 14 18 14 23 36 7 36 -5 0 -9 15 -7 32 2 26 7 32 25 31 39 -2 42 -3 42
-18 0 -20 6 -19 32 7 l21 21 -23 19 c-16 13 -18 18 -7 18 31 0 27 19 -5 28
-28 7 -33 12 -30 34 2 14 -2 29 -7 33 -7 3 -11 -2 -11 -14 0 -12 -4 -21 -10
-21 -5 0 -10 14 -10 30 0 17 -5 30 -12 30 -9 0 -8 3 2 10 9 5 19 5 27 -2 10
-8 13 -6 13 6 0 20 -35 56 -54 56 -13 0 -13 4 -1 34 15 36 12 46 -17 46 -23 0
-36 29 -17 41 8 5 9 9 4 9 -6 0 -11 9 -12 20 -1 15 5 20 25 21 26 0 26 1 5 9
-12 5 -26 22 -29 37 -4 15 -16 34 -26 41 -21 15 -24 50 -5 58 18 7 18 64 0 64
-8 0 -11 -4 -8 -10 3 -5 0 -10 -8 -10 -17 0 -11 44 11 78 13 20 13 22 -2 16
-9 -3 -16 -1 -16 5 0 6 7 11 16 11 13 0 14 3 4 15 -6 8 -9 19 -5 25 4 7 -2 14
-14 17 -17 4 -19 8 -10 19 9 11 8 14 -4 14 -29 0 -56 55 -33 71 12 10 -31 49
-53 49 -11 0 -26 7 -34 15 -8 8 -17 11 -21 8 -3 -4 -6 12 -6 35 0 30 4 42 15
42 18 0 29 40 20 69 -3 12 -13 21 -21 21 -17 0 -19 36 -1 43 9 4 9 8 -2 15 -8
6 -11 18 -6 31 4 12 2 21 -4 21 -6 0 -11 10 -11 23 1 20 2 20 11 5 13 -24 29
-23 29 1 0 27 -15 34 -41 21 -29 -16 -38 -3 -10 16 17 12 19 19 10 30 -12 15
-42 14 -47 -1 -2 -5 1 -11 7 -13 6 -2 11 1 11 7 0 6 5 11 11 11 8 0 8 -5 -1
-15 -18 -21 -47 -19 -53 5 -3 11 -2 20 2 20 7 0 7 35 1 50 -1 3 -2 9 -1 13 9
53 9 87 1 92 -6 4 -8 11 -5 16 3 5 2 24 -3 42 -6 21 -6 40 0 51 7 12 4 18 -14
25 -13 5 -24 5 -26 0 -5 -13 -22 0 -22 17 0 17 31 19 48 2 17 -17 33 2 26 30
-7 26 -34 30 -34 5 0 -11 -3 -14 -8 -7 -4 6 -14 14 -22 17 -12 4 -12 6 1 6 9
1 20 8 23 17 8 22 8 26 -3 19 -16 -9 -21 11 -12 41 22 69 22 82 1 77 -15 -4
-20 0 -20 16 0 19 14 26 42 23 3 -1 9 5 12 13 5 14 -5 19 -31 16 -15 -2 -12
40 4 57 19 20 16 50 -7 57 -15 5 -20 15 -20 40 0 43 22 93 38 87 7 -2 20 -1
30 3 15 6 15 8 -3 15 -15 7 -16 9 -4 9 9 1 23 8 30 17 12 15 11 16 -9 10 -17
-6 -21 -4 -16 8 7 19 10 19 32 7 12 -6 24 -4 37 6 20 15 20 15 -2 10 -13 -3
-23 -1 -23 4 0 5 14 9 31 9 27 0 30 3 26 23 -3 12 1 31 9 41 13 18 14 18 14 2
0 -13 5 -16 20 -11 11 4 20 2 20 -4 0 -6 4 -11 9 -11 5 0 7 9 4 19 -8 31 31
46 78 31 22 -7 39 -17 39 -22 0 -5 -5 -6 -10 -3 -5 3 -10 1 -10 -4 0 -6 15
-11 33 -11 20 0 42 -8 55 -20 15 -15 29 -19 47 -14 25 6 36 -10 13 -19 -17 -7
10 -27 27 -20 7 2 23 -12 35 -31 12 -20 26 -36 32 -36 6 0 8 -11 4 -26 -5 -17
-3 -23 4 -19 5 3 15 3 21 -1 8 -5 8 -9 -1 -14 -8 -5 -6 -16 9 -41 12 -19 25
-35 31 -35 5 -1 20 -2 33 -3 13 0 26 -10 32 -24 6 -12 20 -23 33 -25 12 -2 22
-7 22 -12 0 -16 61 -17 70 -1 8 13 9 12 10 -6 0 -25 10 -29 27 -12 8 8 14 6
22 -10 9 -16 16 -19 34 -12 12 5 64 9 116 10 52 1 98 4 103 7 5 3 19 7 31 9
12 1 47 10 77 18 109 32 165 46 190 49 14 2 35 9 47 16 12 7 30 12 40 12 10 0
29 6 43 13 14 7 45 19 70 27 25 7 49 17 54 22 6 4 20 8 33 8 13 0 28 9 35 20
7 11 20 20 29 20 9 0 24 10 35 22 l19 21 -37 -6 c-20 -3 -39 -2 -43 1 -4 4
-19 7 -33 7 -20 0 -26 4 -24 18 3 16 -9 22 -32 18 -5 -1 -13 4 -17 11 -6 9 -9
9 -9 1 0 -6 9 -18 20 -26 18 -13 19 -15 5 -21 -9 -3 -25 -1 -35 4 -10 6 -33
10 -50 10 -18 0 -33 6 -36 15 -8 19 -19 19 -38 -1 -15 -14 -16 -13 -16 10 0
23 4 26 34 26 19 0 36 -6 39 -12 4 -10 7 -10 17 -1 10 9 10 15 1 26 -10 12 5
15 96 16 60 1 131 2 158 2 28 -1 65 -1 84 -1 18 0 48 -9 66 -20 24 -15 51 -21
98 -21 35 0 70 -5 78 -10 11 -7 11 -9 1 -9 -7 0 -10 -4 -7 -10 3 -5 -5 -22
-19 -37 -22 -23 -28 -25 -50 -15 -15 6 -28 7 -31 2 -3 -5 11 -16 30 -26 26
-12 33 -20 26 -27 -6 -6 -11 -16 -11 -23 0 -15 51 -28 59 -15 4 5 13 9 21 9
35 -2 50 3 50 17 0 8 6 15 13 15 7 0 14 10 14 22 1 13 7 24 12 26 6 2 19 20
28 40 10 20 28 47 41 59 13 12 23 24 22 27 -2 15 13 76 19 76 16 0 69 90 76
128 3 23 15 58 26 79 10 20 19 43 19 49 0 6 7 25 15 40 17 33 20 58 5 49 -5
-3 -10 -2 -10 3 0 12 24 22 51 22 11 0 19 7 19 16 0 11 -6 14 -22 9 -13 -3
-18 -3 -13 2 15 12 36 75 23 67 -8 -5 -9 5 -5 31 3 21 12 42 19 47 8 5 9 8 2
8 -7 0 -9 11 -6 26 3 17 9 23 19 20 11 -4 14 1 11 22 -2 15 -8 26 -15 25 -19
-4 -16 15 5 26 16 9 16 11 -3 25 -18 14 -18 15 -2 16 9 0 17 2 17 5 0 9 -82
85 -92 85 -4 0 -8 7 -8 15 0 9 -9 15 -24 15 -18 0 -27 8 -34 29 -6 16 -8 32
-5 34 11 11 -19 48 -35 43 -24 -7 -54 18 -46 38 5 12 2 15 -10 10 -12 -4 -16
0 -16 15 0 12 5 21 10 21 6 0 10 4 10 10 0 15 -66 42 -112 45 -24 2 -48 4 -55
4 -6 1 -13 11 -15 24 -2 14 -11 23 -27 25 -18 3 -22 0 -18 -12 5 -13 2 -13
-18 -4 -14 6 -25 17 -25 24 0 6 -7 15 -16 18 -24 9 -54 7 -54 -4 0 -5 -4 -10
-10 -10 -5 0 -10 7 -10 15 0 9 -6 12 -15 9 -8 -4 -15 -1 -15 4 0 7 -11 8 -32
1 -44 -12 -48 -12 -48 6 0 8 9 15 19 15 11 0 23 4 26 10 3 5 0 7 -8 4 -8 -3
-18 -1 -21 5 -4 6 -14 8 -24 5 -14 -5 -15 -4 -2 5 21 15 5 25 -19 11 -12 -6
-26 -8 -31 -5 -5 3 -32 7 -60 9 -57 4 -71 12 -50 27 12 9 12 10 -2 5 -10 -3
-25 -9 -33 -12 -9 -4 -15 -1 -15 6 0 10 -14 11 -55 6 -50 -6 -55 -4 -55 13 0
11 6 22 12 24 7 3 3 6 -9 6 -12 1 -23 -5 -26 -11 -4 -10 -7 -10 -18 0 -11 10
-9 15 9 28 21 15 22 34 1 34 -6 0 -8 -4 -4 -9 3 -6 -1 -13 -8 -18 -8 -4 -17
-15 -20 -23 -4 -10 -6 -7 -6 8 -1 23 -15 30 -26 12 -10 -17 -55 -12 -55 6 0
14 -8 15 -47 9 -27 -3 -58 -9 -70 -12 -14 -3 -23 -1 -23 6 0 6 4 10 9 8 5 -1
10 2 10 7 1 6 -6 11 -15 12 -25 4 -30 14 -6 14 11 0 24 -4 27 -10 3 -5 13 -10
21 -10 8 0 12 5 9 10 -3 6 3 10 15 10 12 0 19 4 15 9 -3 6 12 11 32 13 31 3
34 5 19 12 -11 6 -32 4 -53 -3 -22 -8 -48 -10 -71 -5 -42 8 -83 8 -159 -1 -43
-5 -53 -4 -53 8 0 9 13 18 30 22 17 4 28 11 24 16 -3 5 -10 6 -16 3 -18 -11
-72 -11 -86 -1 -8 7 -21 6 -38 -2 -31 -14 -56 -14 -31 0 23 13 22 29 -3 29
-11 0 -20 -4 -20 -8 0 -5 -14 -9 -30 -10 -17 0 -28 3 -25 8 7 11 -5 40 -16 40
-4 0 -6 -7 -3 -15 4 -10 0 -15 -11 -15 -11 0 -15 5 -11 15 5 13 -2 15 -39 12
-24 -2 -48 -6 -51 -10 -10 -9 -24 -9 -24 1 0 4 10 12 22 17 12 6 24 16 26 23
3 11 -9 12 -54 9 -107 -8 -133 18 -79 77 30 32 38 56 24 73 -16 19 18 84 39
75 11 -4 14 -1 9 11 -3 8 -1 17 6 20 7 2 12 10 13 18 2 37 18 79 29 79 7 0 24
6 38 13 25 13 25 15 11 41 -19 38 -18 49 6 64 11 7 20 19 20 28 0 8 5 12 10 9
6 -3 10 2 10 12 0 15 2 16 10 3 6 -9 10 -10 10 -3 0 6 -9 18 -21 26 -13 9 -16
17 -10 22 6 3 11 1 11 -4 0 -21 40 -11 51 12 22 49 34 62 54 59 16 -4 17 -2 7
11 -9 10 -10 17 -2 22 5 3 10 3 10 -2 0 -4 10 7 21 25 21 32 46 45 35 17 -3
-9 0 -15 9 -15 8 0 15 6 15 13 0 7 3 8 8 2 17 -24 32 -14 33 22 1 21 3 30 6
21 7 -27 45 -22 83 12 19 17 40 28 47 26 7 -3 13 1 13 9 0 8 7 15 16 15 10 0
14 -6 11 -15 -4 -8 -2 -17 3 -20 6 -4 10 1 10 10 0 22 80 58 97 43 8 -6 14 -9
16 -7 24 42 36 73 31 80 -3 5 2 9 10 9 9 0 16 5 16 11 0 6 5 9 12 7 6 -2 21
14 33 36 14 25 29 40 39 40 13 -2 14 1 5 13 -7 7 -19 11 -28 8 -9 -3 -5 4 8
15 13 11 30 20 39 20 14 0 14 2 -1 13 -16 11 -15 15 7 59 13 27 27 66 31 87 5
31 10 39 23 34 13 -4 13 -3 -2 9 -11 9 -16 20 -12 27 6 9 13 8 27 -5 25 -23
24 -5 -2 44 -21 39 -21 72 1 72 5 0 10 -8 10 -17 0 -9 3 -14 6 -10 10 10 -6
75 -22 92 -19 18 -28 57 -26 110 0 22 1 59 2 83 0 25 5 40 10 37 12 -8 13 8 1
21 -13 14 -24 97 -11 89 5 -3 18 -1 27 4 17 10 17 11 -2 12 -11 1 -26 2 -32 2
-7 -1 -13 3 -13 8 0 5 9 9 21 9 14 0 19 5 16 13 -4 10 5 14 29 15 42 2 55 8
48 25 -6 17 40 67 61 67 9 0 14 4 11 9 -3 5 3 11 14 14 11 3 23 1 26 -4 9 -16
22 -10 18 9 -6 19 44 54 80 56 14 1 20 8 19 20 -1 13 4 16 18 13 13 -3 24 2
32 14 13 21 37 26 37 8 0 -7 10 -1 23 12 12 14 35 25 52 25 17 1 38 2 48 3 9
1 17 7 17 15 0 10 15 14 57 15 31 0 61 5 67 11 7 7 5 10 -6 10 -26 0 -31 18
-5 18 12 1 33 2 47 4 14 2 36 0 48 -4 13 -4 28 -6 32 -3 14 9 0 35 -19 36 -9
1 0 4 19 8 25 4 35 11 34 24 -2 22 13 22 19 0 4 -14 5 -12 6 5 1 20 31 34 31
13 0 -5 20 -5 46 0 39 7 50 6 71 -11 14 -11 37 -20 52 -19 l26 1 -25 9 c-28
11 -66 57 -55 67 3 3 9 2 13 -4 10 -16 62 -27 62 -13 0 6 6 9 14 6 21 -8 26 2
15 30 -7 19 -6 24 3 20 7 -2 21 3 31 11 17 15 20 14 42 -13 13 -17 27 -27 31
-22 4 4 -3 18 -16 32 -13 14 -21 28 -18 31 8 7 48 -16 70 -40 17 -18 18 -18
18 -1 0 10 -7 27 -17 37 -32 35 -3 30 43 -7 36 -30 44 -33 34 -16 -14 28 -6
39 16 20 15 -12 16 -11 9 10 -6 21 -5 23 11 16 11 -4 27 -10 37 -12 9 -3 17
-11 17 -19 0 -7 7 -17 16 -22 13 -7 14 -11 4 -17 -8 -5 -16 -1 -22 9 -5 9 -14
16 -20 16 -6 0 -1 -11 12 -25 26 -27 50 -33 50 -11 0 8 7 17 16 20 9 3 12 11
8 18 -5 8 0 7 11 -2 17 -14 18 -13 12 3 -9 24 5 21 28 -5 22 -26 44 -81 46
-118 l2 -25 4 25 c3 14 10 31 15 38 8 9 6 12 -6 12 -20 0 -21 20 -1 46 14 18
14 18 15 -11 1 -25 3 -27 9 -10 7 17 10 13 21 -25 16 -59 26 -70 64 -70 30 0
32 2 33 36 1 19 3 37 5 39 9 9 48 -8 48 -21 0 -8 7 -14 15 -14 8 0 15 -6 15
-14 0 -17 27 -29 35 -16 3 5 -3 18 -15 30 -21 21 -26 40 -11 40 5 0 28 -7 52
-16 24 -8 66 -17 93 -19 32 -3 53 -10 59 -20 8 -15 10 -15 20 0 16 21 234 26
247 5 5 -8 18 -11 38 -7 18 4 37 0 51 -9 12 -9 21 -11 21 -5 0 6 5 11 10 11 6
0 10 -7 10 -15 0 -8 7 -15 15 -15 18 0 20 -16 3 -23 -7 -3 -3 -6 9 -6 12 -1
24 -5 28 -11 4 -6 15 -6 33 1 21 8 29 7 38 -5 6 -9 18 -16 27 -16 9 0 19 -4
22 -10 10 -16 28 -12 21 5 -3 8 0 15 7 15 7 0 22 3 35 6 16 5 22 2 22 -9 0 -8
16 -27 35 -41 19 -15 35 -35 35 -44 1 -15 2 -15 13 -2 7 9 19 14 29 12 9 -2
18 5 21 15 4 17 5 17 6 1 1 -17 23 -23 59 -19 6 1 12 -3 12 -10 0 -7 14 -10
40 -7 33 3 41 0 46 -16 5 -15 8 -16 15 -5 7 11 9 10 9 -3 0 -19 20 -20 32 -3
4 6 10 -5 14 -22 7 -37 20 -42 40 -15 13 16 16 15 38 -10 13 -15 36 -30 50
-34 14 -3 26 -12 26 -19 0 -14 34 -47 46 -44 25 4 43 -2 38 -15 -3 -7 2 -21
11 -30 9 -9 14 -20 11 -25 -7 -10 24 -25 33 -16 3 3 -1 10 -9 15 -8 5 -12 12
-8 15 8 9 55 -22 62 -41 4 -10 0 -15 -12 -13 -42 4 -44 -3 -8 -24 34 -21 38
-29 42 -70 2 -26 -1 -49 -7 -53 -8 -4 -8 -9 1 -14 6 -4 11 -26 12 -50 0 -39 2
-42 13 -26 13 16 14 16 17 -5 2 -16 30 -44 44 -44 1 0 5 -10 8 -22 6 -18 4
-22 -8 -17 -13 5 -14 2 -5 -26 6 -17 9 -34 5 -37 -3 -4 -6 2 -6 13 -1 18 -2
17 -19 -3 -15 -19 -17 -30 -10 -60 12 -55 11 -73 -6 -73 -11 0 -15 11 -16 38
0 34 -1 35 -10 13 -12 -30 -6 -106 11 -126 7 -9 10 -27 6 -45 -3 -17 -2 -30 3
-30 5 0 11 -11 13 -25 3 -13 2 -22 -2 -20 -4 3 -10 -4 -13 -15 -3 -11 -1 -20
4 -20 5 0 9 -4 9 -10 0 -5 -7 -10 -15 -10 -8 0 -15 -5 -15 -11 0 -6 9 -8 20
-4 23 7 25 2 10 -25 -9 -16 -8 -18 6 -13 12 4 15 0 13 -18 -4 -26 26 -99 40
-99 4 0 14 -18 21 -40 7 -22 24 -47 37 -57 12 -10 23 -22 23 -27 0 -5 21 -41
48 -80 26 -39 54 -85 62 -101 8 -17 27 -47 43 -66 15 -20 27 -40 27 -46 0 -5
13 -23 30 -39 16 -16 30 -35 30 -41 0 -7 6 -13 14 -13 21 0 31 -21 16 -30 -9
-6 -7 -10 8 -14 11 -4 25 -20 30 -36 7 -18 19 -30 33 -32 24 -3 29 -18 33 -93
1 -36 6 -50 17 -50 7 -1 24 -6 36 -13 18 -10 21 -17 14 -35 -5 -12 -5 -31 0
-42 4 -11 8 -14 8 -7 1 6 5 12 11 12 5 0 8 -18 5 -40 -3 -32 1 -43 18 -55 11
-8 18 -18 14 -21 -4 -4 -1 -14 6 -22 10 -13 9 -14 -11 -3 -13 7 -28 11 -33 9
-9 -3 2 -21 70 -109 18 -24 28 -66 30 -126 1 -16 6 -21 16 -17 8 4 15 1 15 -5
0 -6 -5 -11 -12 -11 -6 0 -4 -7 5 -18 10 -10 17 -24 17 -30 0 -7 7 -12 15 -12
8 0 15 -7 15 -15 0 -8 4 -15 9 -15 5 0 13 -10 17 -22 4 -13 15 -28 24 -35 18
-13 34 -63 20 -63 -12 0 -31 26 -24 33 4 3 -7 5 -22 3 -16 -1 -34 1 -41 6 -7
6 -20 4 -34 -4 -17 -11 -22 -11 -26 0 -9 24 -55 72 -69 72 -8 0 -19 11 -24 24
-5 14 -23 35 -41 48 -17 13 -35 33 -40 45 -4 12 -16 23 -26 26 -10 2 -2 3 17
1 19 -2 41 -12 47 -21 51 -72 94 -114 112 -111 25 5 17 23 -11 26 -16 2 -28 9
-28 18 0 8 -4 14 -10 14 -5 0 -18 20 -29 45 -14 32 -26 45 -41 45 -35 0 -85
34 -74 51 2 4 -10 17 -27 29 -22 17 -33 20 -42 11 -8 -8 -7 -11 5 -11 14 0 28
-27 28 -58 0 -17 -68 38 -76 61 -3 9 -9 17 -14 17 -12 0 -3 -69 11 -86 18 -22
7 -23 -26 -3 -16 11 -26 19 -20 19 5 0 -1 7 -13 16 -12 8 -22 24 -22 34 0 10
-5 22 -10 25 -7 4 -9 -3 -4 -22 12 -56 16 -63 35 -73 19 -11 26 -30 11 -30 -5
0 -19 9 -32 20 -12 11 -26 18 -30 15 -4 -2 -5 6 -3 18 5 27 -33 47 -89 47 -44
0 -50 -15 -11 -25 15 -3 31 -12 35 -18 6 -9 11 -8 17 3 6 8 13 11 17 7 4 -4 0
-13 -10 -20 -16 -12 -16 -14 -2 -26 31 -26 16 -29 -26 -7 -52 27 -110 48 -116
41 -8 -8 20 -35 30 -29 11 7 62 -45 53 -55 -4 -3 -13 2 -20 13 -8 11 -21 16
-30 13 -8 -4 -15 -2 -15 3 0 6 -9 10 -21 10 -28 0 -19 -23 11 -25 13 -1 31
-12 41 -23 9 -12 21 -22 26 -22 4 0 14 -9 21 -21 16 -24 8 -21 -45 19 -23 17
-47 25 -80 26 -27 1 -48 7 -51 14 -2 7 -12 17 -23 22 -15 9 -17 8 -12 -7 5
-13 3 -15 -13 -8 -25 12 -88 9 -92 -4 -4 -12 -29 -3 -54 18 -25 22 -108 53
-108 41 0 -6 7 -13 15 -16 8 -4 13 -10 10 -14 -3 -4 4 -10 15 -13 11 -3 20
-11 20 -17 0 -7 -7 -10 -16 -6 -9 3 -24 6 -35 6 -11 0 -27 9 -36 20 -12 14
-30 20 -58 20 -22 0 -53 7 -69 15 -36 19 -42 19 -26 0 18 -22 10 -25 -39 -14
-56 12 -75 6 -66 -22 6 -18 5 -19 -13 -10 -26 14 -102 10 -102 -6 0 -15 -68 3
-92 24 -33 29 -41 8 -9 -24 51 -51 48 -51 -86 10 -16 7 -27 7 -37 -2 -11 -9
-15 -9 -19 1 -4 10 -7 10 -15 -1 -11 -15 -47 -7 -73 16 -11 9 -26 12 -43 7
-32 -8 -23 -28 10 -21 13 2 21 0 18 -4 -3 -5 3 -10 13 -10 10 -1 0 -5 -22 -9
-40 -8 -75 2 -75 20 0 6 -4 10 -10 10 -5 0 -9 -8 -7 -17 1 -10 -2 -18 -8 -18
-5 0 -9 4 -7 8 1 5 -2 6 -8 2 -5 -3 -26 2 -46 11 -21 10 -39 13 -42 8 -9 -13
-50 -10 -65 5 -16 16 -27 14 -21 -4 3 -8 14 -17 25 -20 10 -4 19 -11 19 -17 0
-12 -70 -4 -79 9 -10 14 -29 9 -50 -14 -11 -12 -28 -24 -38 -27 -10 -3 -26
-19 -35 -36 -9 -16 -24 -30 -33 -30 -14 0 -16 -8 -10 -50 6 -42 4 -50 -9 -50
-9 0 -16 -5 -16 -11 0 -6 -7 -8 -16 -5 -9 4 -13 2 -8 -5 4 -7 -1 -9 -12 -7
-11 2 -18 11 -18 21 1 9 -5 17 -12 17 -20 0 -30 -30 -14 -40 9 -5 9 -9 1 -14
-6 -4 -9 -11 -6 -16 3 -5 1 -11 -5 -15 -5 -3 -10 3 -10 14 0 15 -4 19 -17 14
-9 -4 -12 -8 -6 -10 12 -4 -6 -53 -20 -53 -5 0 -5 -6 -1 -12 12 -20 12 -49 0
-45 -6 2 -12 13 -14 25 -2 12 -8 20 -13 17 -14 -9 -11 -48 7 -73 8 -12 10 -22
5 -22 -6 0 -11 5 -11 10 0 7 -6 7 -20 0 -11 -6 -20 -20 -20 -31 0 -11 4 -17
10 -14 14 9 13 -18 -2 -33 -8 -8 -8 -15 0 -25 9 -10 8 -17 -1 -26 -9 -11 -9
-14 1 -18 14 -5 16 -49 2 -58 -13 -8 -1 -35 17 -35 11 0 13 -4 6 -12 -6 -7
-13 -21 -17 -32 -5 -14 -2 -17 9 -12 9 3 15 0 15 -8 0 -8 3 -21 6 -29 4 -10
-1 -15 -13 -14 -15 2 -18 -6 -18 -58 0 -33 -4 -66 -8 -72 -5 -8 -4 -13 2 -13
6 0 11 5 11 10 0 6 4 10 10 10 5 0 10 -17 10 -37 0 -92 2 -101 19 -96 13 5 13
3 4 -7 -6 -7 -9 -19 -6 -26 3 -8 0 -14 -6 -14 -22 0 -11 -20 12 -21 20 -1 19
-2 -5 -11 -16 -5 -28 -17 -28 -26 0 -12 3 -13 12 -4 22 22 28 13 23 -35 -3
-33 -1 -43 5 -33 7 11 10 3 10 -27 0 -32 4 -43 15 -43 8 0 15 -6 15 -14 0 -16
63 -56 89 -56 17 0 61 39 61 55 0 4 8 14 18 21 16 13 16 14 0 8 -10 -3 -18 -1
-18 5 0 6 12 14 26 17 15 4 23 12 20 20 -7 17 19 37 52 39 65 5 128 19 143 31
17 15 29 9 29 -13 0 -7 -6 -13 -13 -13 -17 0 -37 -42 -37 -79 0 -19 -11 -37
-35 -58 -23 -21 -33 -37 -29 -47 7 -18 35 -22 31 -5 -1 6 4 14 11 16 7 3 12
-4 12 -16 0 -11 5 -23 10 -26 6 -4 69 -6 141 -6 89 0 138 -4 153 -13 11 -7 39
-14 60 -15 22 -2 85 -16 140 -32 56 -16 111 -29 123 -29 12 0 24 -4 27 -9 7
-11 105 -26 113 -17 9 9 -45 27 -112 37 -54 9 -96 24 -178 65 -16 8 -35 14
-44 14 -19 0 -75 31 -90 50 -10 12 -7 16 15 21 23 6 24 7 5 8 -22 1 -44 21
-23 21 6 0 9 4 5 9 -3 5 0 13 6 16 7 5 0 14 -18 26 -15 10 -22 19 -15 19 6 0
12 7 12 15 0 26 14 17 28 -18 8 -17 18 -41 23 -52 16 -33 97 -115 113 -115 8
0 17 -4 21 -9 9 -15 95 -40 155 -46 62 -5 110 11 110 37 0 10 7 18 15 18 21 0
70 46 113 105 19 28 41 55 48 60 7 6 13 39 14 75 4 107 2 123 -14 117 -15 -6
-15 -1 0 41 6 14 8 13 14 -8 4 -15 12 -24 22 -22 9 1 19 -2 23 -8 12 -20 33
-11 27 12 -4 18 -2 20 14 14 10 -5 31 -13 47 -18 16 -6 27 -17 27 -29 0 -10 4
-19 9 -19 5 0 11 -9 14 -21 4 -14 10 -18 18 -13 10 6 10 9 1 12 -14 4 -16 32
-2 32 6 0 18 -18 27 -40 13 -29 25 -41 45 -45 16 -4 28 -13 28 -21 0 -19 -9
-18 -33 3 -20 17 -20 17 -14 -7 4 -14 7 -28 7 -31 0 -4 9 -9 19 -12 16 -4 18
-11 14 -51 -4 -31 -2 -46 6 -46 6 0 12 17 13 38 1 36 1 36 5 5 3 -25 10 -34
29 -39 27 -7 33 -23 8 -20 -9 0 -19 -5 -22 -13 -3 -10 2 -11 18 -6 22 7 22 5
15 -31 -4 -22 -9 -47 -10 -57 -1 -10 -8 -22 -15 -27 -24 -15 -4 -22 34 -12 20
6 36 7 36 2 0 -10 -31 -24 -48 -21 -8 1 -19 -2 -25 -7 -12 -9 -66 -25 -97 -28
-33 -3 -60 -17 -60 -31 0 -12 11 -14 52 -11 41 2 53 0 55 -12 3 -12 -9 -16
-54 -17 -31 -2 -59 -7 -63 -12 -7 -12 -24 -1 -32 19 -5 14 -14 15 -86 11 -11
-1 -11 -3 0 -14 19 -19 51 -32 84 -36 6 0 24 -13 39 -28 l28 -28 -6 26 c-9 35
8 42 87 33 58 -6 60 -5 41 10 -19 16 -19 16 13 12 17 -2 32 -1 32 3 0 13 63 0
107 -21 23 -12 40 -24 38 -29 -3 -4 -1 -10 4 -13 13 -8 1 -48 -18 -63 -14 -11
-14 -13 6 -19 13 -4 20 -11 16 -20 -6 -16 22 -20 32 -4 3 5 12 7 20 4 18 -7
57 14 49 28 -9 15 18 29 33 17 8 -7 19 -7 34 2 17 9 24 9 27 0 6 -19 22 -12
22 9 0 12 7 20 16 20 19 0 40 20 47 46 4 17 5 17 6 1 1 -13 8 -17 24 -15 14 2
21 9 19 19 -4 27 29 44 96 48 6 1 12 8 12 16 0 18 12 19 28 3 9 -9 12 -9 12 1
0 8 6 11 16 7 10 -4 18 0 21 13 7 29 70 56 98 43 25 -12 40 -5 26 12 -6 7 -4
16 5 24 12 11 14 9 14 -8 0 -11 7 -20 15 -20 8 0 15 -4 15 -10 0 -5 7 -10 15
-10 20 0 19 17 -2 29 -10 5 -15 12 -11 16 3 4 15 -2 26 -13 11 -11 29 -19 39
-17 10 2 23 4 30 4 7 1 10 8 6 17 -3 8 -12 13 -19 10 -8 -3 -14 -1 -14 4 0 6
9 10 20 10 11 0 20 -7 20 -15 0 -17 16 -20 25 -6 9 15 78 4 92 -15 12 -16 13
-15 22 7 6 17 5 26 -5 32 -8 4 -14 12 -14 16 0 12 52 4 60 -9 4 -7 18 -9 36
-4 27 6 28 5 10 -8 -18 -14 -20 -54 -1 -49 6 2 9 8 7 15 -1 6 4 3 12 -7 8 -10
20 -15 30 -11 13 5 16 0 16 -25 0 -21 5 -31 15 -31 9 0 15 -6 14 -12 -1 -7 -1
-22 0 -33 2 -19 3 -19 13 3 6 12 15 22 20 22 11 0 10 -17 -2 -25 -6 -3 -10
-17 -10 -31 0 -13 -5 -24 -11 -24 -5 0 -9 -8 -8 -17 4 -46 -1 -65 -17 -59 -9
3 -14 1 -12 -5 2 -6 7 -10 12 -9 13 2 26 -22 26 -50 1 -25 1 -25 13 -4 8 15
18 19 31 15 17 -7 17 -8 2 -24 -10 -9 -24 -17 -32 -17 -23 0 -16 -20 10 -30
13 -5 27 -14 32 -21 4 -8 3 -10 -4 -5 -23 14 -32 -5 -12 -26 14 -15 16 -24 9
-29 -6 -4 -8 -12 -5 -18 4 -6 2 -11 -3 -11 -6 0 -11 -7 -11 -16 0 -11 -6 -14
-20 -9 -11 4 -20 2 -20 -4 0 -6 6 -11 13 -11 6 0 17 -11 24 -25 10 -23 9 -25
-12 -25 -19 0 -22 4 -17 23 5 20 4 21 -11 8 -14 -11 -15 -17 -6 -28 9 -10 9
-17 1 -25 -7 -7 -12 -22 -12 -34 0 -12 -5 -24 -12 -26 -7 -3 -12 -25 -12 -56
0 -41 -2 -49 -13 -40 -10 8 -13 6 -13 -10 0 -15 5 -20 15 -16 22 9 18 -13 -5
-29 -21 -14 -21 -14 2 -21 21 -6 22 -7 6 -20 -12 -9 -18 -27 -18 -55 0 -23 -4
-40 -9 -37 -12 8 -33 -20 -35 -47 -1 -13 -7 -21 -16 -19 -11 3 -11 0 -1 -12
15 -18 7 -62 -15 -87 -14 -16 -15 -44 -2 -64 7 -12 -16 -48 -25 -39 -3 3 -9
-10 -12 -29 -5 -23 -14 -37 -27 -40 -11 -3 -17 -10 -13 -16 3 -6 1 -11 -4 -11
-6 0 -11 -4 -11 -10 0 -5 9 -10 20 -10 25 0 26 -18 3 -27 -24 -9 -63 -51 -63
-67 0 -8 -7 -16 -15 -20 -8 -3 -12 -12 -9 -21 4 -9 1 -15 -8 -15 -10 0 -14
-10 -13 -29 2 -27 0 -28 -39 -27 -23 1 -47 5 -53 9 -15 9 -36 0 -28 -13 2 -4
-17 -13 -43 -20 -45 -12 -46 -13 -23 -23 19 -9 25 -9 29 1 2 6 8 12 13 12 4 0
6 -6 4 -12 -6 -18 6 -35 30 -41 14 -5 12 -5 -5 -3 -14 2 -32 7 -41 10 -13 6
-16 2 -12 -18 3 -16 10 -23 19 -19 10 4 14 -4 14 -27 0 -20 7 -38 18 -46 15
-12 13 -13 -20 -14 -34 0 -38 -3 -47 -38 -6 -20 -11 -42 -11 -47 0 -13 -59
-69 -82 -78 -11 -4 -18 -17 -18 -31 0 -28 -16 -37 -47 -25 -23 9 -24 8 -27
-41 -1 -8 -6 -15 -11 -16 -6 0 -29 -10 -53 -21 -32 -15 -50 -32 -69 -69 -32
-61 -32 -61 -42 -46 -6 10 -12 4 -21 -17 -7 -17 -19 -31 -26 -31 -8 0 -14 -4
-14 -10 0 -5 7 -10 15 -10 8 0 15 -4 15 -10 0 -5 -7 -10 -15 -10 -18 0 -20
-16 -2 -23 7 -3 4 -6 -6 -6 -12 -1 -15 -5 -11 -13 15 -23 11 -48 -8 -54 -10
-3 -15 -10 -12 -16 5 -7 2 -8 -5 -4 -9 6 -9 12 3 25 20 22 20 27 2 34 -10 4
-13 1 -9 -9 4 -10 -2 -14 -21 -14 -14 0 -26 -4 -26 -10 0 -5 8 -10 17 -10 15
0 15 -3 -4 -21 -22 -23 -43 -19 -43 8 0 11 -9 6 -30 -17 -16 -18 -30 -29 -30
-24 0 6 5 15 12 22 9 9 7 12 -11 12 -17 0 -22 -5 -19 -23 2 -15 -4 -25 -19
-32 -12 -5 -21 -16 -21 -25 0 -8 -3 -24 -7 -36 -8 -24 20 -58 40 -50 7 2 21
-4 31 -15 17 -19 17 -20 -39 -13 -60 7 -74 0 -32 -16 22 -8 24 -12 13 -29 -14
-24 -58 -34 -58 -15 0 16 -26 19 -35 4 -5 -8 -11 -7 -21 1 -11 9 -14 7 -14
-15 0 -19 -5 -26 -20 -26 -17 0 -20 -7 -20 -44 0 -30 -5 -46 -16 -50 -8 -3
-13 -2 -10 3 3 4 -6 6 -19 3 -24 -4 -36 -22 -14 -22 6 0 8 -8 4 -20 -3 -10 -2
-28 4 -38 8 -15 5 -24 -14 -42 -14 -13 -25 -27 -25 -32 0 -4 497 -8 1105 -8
l1105 0 0 677 c0 388 -4 673 -9 668 -17 -19 -61 -106 -61 -121 0 -8 -9 -24
-20 -36 -11 -12 -27 -41 -36 -64 -9 -24 -24 -46 -33 -49 -9 -3 -31 -18 -49
-34 -22 -21 -51 -34 -92 -42 -33 -6 -60 -16 -60 -20 0 -5 -11 -9 -24 -9 -13 0
-26 -6 -29 -14 -6 -16 -60 -30 -105 -27 -18 2 -40 -3 -49 -11 -12 -10 -17 -10
-20 -1 -2 7 -10 10 -18 7 -17 -7 -37 29 -29 50 3 9 1 16 -6 16 -6 0 -9 4 -5
10 3 5 11 7 18 4 18 -6 48 129 40 179 -5 35 -4 37 21 37 18 0 26 5 26 18 0 10
5 23 11 29 6 6 10 52 10 106 0 68 3 96 11 94 6 -1 18 10 25 25 18 36 59 37
117 3 24 -14 46 -22 49 -18 4 3 7 -1 7 -10 0 -9 5 -17 10 -17 6 0 10 7 10 15
0 9 11 27 25 40 13 14 20 25 15 25 -15 0 -7 24 13 39 42 31 105 233 116 369 5
58 13 97 21 102 9 6 9 9 0 12 -8 2 -12 24 -12 58 1 87 1 88 19 92 15 3 15 4
-1 21 -10 10 -20 37 -22 60 -3 33 -2 37 5 17 8 -22 9 -20 10 18 1 24 -3 41 -8
38 -9 -6 -39 124 -45 198 -2 26 -10 52 -17 57 -12 8 -11 12 4 23 16 13 16 14
-4 19 -11 3 -18 10 -14 16 4 7 -4 11 -19 11 -14 0 -26 -4 -26 -10 0 -5 7 -7
15 -4 9 4 15 1 15 -7 0 -9 -12 -14 -30 -15 -28 -1 -30 2 -31 35 -1 20 -2 47
-3 61 -1 16 -10 29 -29 38 -27 13 -28 38 -1 28 9 -4 14 2 14 17 1 21 1 21 15
3 8 -10 13 -22 11 -25 -2 -3 2 -12 10 -19 11 -10 14 -10 14 2 0 17 21 26 61
26 16 0 29 -5 29 -12 0 -10 2 -10 8 0 17 26 39 3 36 -39 -4 -40 9 -53 20 -22
6 15 8 15 16 3 5 -8 7 -22 4 -31 -2 -10 2 -19 11 -23 12 -4 14 -10 7 -23 -10
-17 4 -63 19 -63 4 0 10 -8 12 -18 3 -9 5 1206 6 2701 l1 2717 -3432 0 -3433
0 -27 -34z m2954 -278 c-7 -7 -12 -8 -12 -2 0 14 12 26 19 19 2 -3 -1 -11 -7
-17z m-49 -133 c-3 -8 -9 -15 -14 -15 -10 0 -12 24 -3 33 11 11 24 -3 17 -18z
m-98 -245 c3 -5 -1 -10 -9 -10 -8 0 -18 5 -21 10 -3 6 1 10 9 10 8 0 18 -4 21
-10z m-63 -30 c18 0 36 -26 25 -36 -6 -6 -48 16 -59 31 -12 16 -9 30 4 17 7
-7 20 -12 30 -12z m182 -15 c3 -8 1 -15 -3 -15 -5 0 -11 7 -15 15 -3 8 -1 15
3 15 5 0 11 -7 15 -15z m-100 -40 c23 -18 15 -48 -11 -38 -21 7 -33 22 -33 41
0 16 20 15 44 -3z m84 -30 c13 -29 5 -33 -14 -7 -15 20 -18 32 -6 32 5 0 14
-11 20 -25z m-483 -55 c3 -5 1 -10 -4 -10 -6 0 -11 5 -11 10 0 6 2 10 4 10 3
0 8 -4 11 -10z m5 -50 c0 -5 -9 -10 -19 -10 -11 0 -23 5 -26 10 -4 6 5 10 19
10 14 0 26 -4 26 -10z m630 -46 c0 -35 -27 -30 -32 6 -3 17 -2 32 0 35 10 10
32 -18 32 -41z m-745 26 c3 -5 1 -10 -4 -10 -6 0 -11 5 -11 10 0 6 2 10 4 10
3 0 8 -4 11 -10z m1700 -100 c3 -5 1 -10 -4 -10 -6 0 -11 5 -11 10 0 6 2 10 4
10 3 0 8 -4 11 -10z m245 -86 c0 -8 -4 -12 -10 -9 -5 3 -10 10 -10 16 0 5 5 9
10 9 6 0 10 -7 10 -16z m50 -24 c0 -5 -4 -10 -10 -10 -5 0 -10 5 -10 10 0 6 5
10 10 10 6 0 10 -4 10 -10z m-2876 -205 c3 -8 1 -15 -4 -15 -6 0 -10 7 -10 15
0 8 2 15 4 15 2 0 6 -7 10 -15z m3251 -5 c-3 -5 -10 -10 -16 -10 -5 0 -9 5 -9
10 0 6 7 10 16 10 8 0 12 -4 9 -10z m-3383 -140 c4 0 8 -5 8 -11 0 -7 6 -17
14 -23 16 -12 34 -132 18 -122 -5 3 -12 20 -16 38 -3 17 -17 55 -31 84 -14 29
-25 59 -24 66 0 7 5 3 11 -9 6 -13 15 -23 20 -23z m3504 -147 c-11 -11 -19 6
-11 24 8 17 8 17 12 0 3 -10 2 -21 -1 -24z m-3477 -72 c1 -35 -5 -22 -12 24
-5 28 -4 34 3 20 5 -11 9 -31 9 -44z m-2 -83 c-3 -7 -5 -2 -5 12 0 14 2 19 5
13 2 -7 2 -19 0 -25z m53 -33 c0 -8 -2 -15 -4 -15 -2 0 -6 7 -10 15 -3 8 -1
15 4 15 6 0 10 -7 10 -15z m3490 -24 c0 -5 -9 -11 -20 -14 -13 -3 -20 0 -20 9
0 8 9 14 20 14 11 0 20 -4 20 -9z m-26 -229 c-6 -4 -14 -14 -17 -22 -4 -10 -6
-8 -6 8 -1 15 5 22 17 22 10 0 13 -3 6 -8z m-3962 -404 c-7 -7 -12 -8 -12 -2
0 14 12 26 19 19 2 -3 -1 -11 -7 -17z m-307 -277 c-3 -6 -11 -11 -16 -11 -5 0
-4 6 3 14 14 16 24 13 13 -3z m-184 -354 c-8 -8 -11 -7 -11 4 0 20 13 34 18
19 3 -7 -1 -17 -7 -23z m-1122 -109 c31 -62 31 -62 5 -38 -39 38 -68 100 -46
100 5 0 23 -28 41 -62z m48 0 c-3 -8 -6 -5 -6 6 -1 11 2 17 5 13 3 -3 4 -12 1
-19z m1289 -143 c-23 -17 -36 -19 -36 -6 0 11 18 19 40 20 11 0 10 -3 -4 -14z
m171 7 c7 -5 9 -13 4 -21 -7 -11 -11 -9 -20 8 -12 21 -6 27 16 13z m-1440 -89
c-3 -10 -5 -4 -5 12 0 17 2 24 5 18 2 -7 2 -21 0 -30z m1628 -9 c-9 -9 -19
-13 -23 -10 -3 4 0 11 8 16 24 15 33 11 15 -6z m3215 -154 c0 -5 -4 -10 -10
-10 -5 0 -10 5 -10 10 0 6 5 10 10 10 6 0 10 -4 10 -10z m270 0 c0 -5 -2 -10
-4 -10 -3 0 -8 5 -11 10 -3 6 -1 10 4 10 6 0 11 -4 11 -10z m781 -10 c18 -15
20 -19 8 -20 -9 0 -24 9 -34 20 -23 26 -4 26 26 0z m339 5 c0 -8 -4 -15 -10
-15 -5 0 -10 7 -10 15 0 8 5 15 10 15 6 0 10 -7 10 -15z m-1755 -15 c8 -13 -5
-13 -25 0 -13 8 -13 10 2 10 9 0 20 -4 23 -10z m1064 -16 c1 -1 1 -7 0 -13 -2
-5 -15 0 -29 11 l-25 21 25 -8 c14 -4 27 -9 29 -11z m237 -22 c-4 -3 -14 2
-24 12 -16 18 -16 18 6 6 13 -6 21 -14 18 -18z m514 -16 c0 -2 -8 -4 -19 -3
-12 1 -17 7 -13 19 3 15 6 15 18 3 8 -7 14 -16 14 -19z m-229 -53 c13 -16 12
-17 -3 -4 -10 7 -18 15 -18 17 0 8 8 3 21 -13z m-3311 -54 c0 -11 -27 -12 -34
0 -3 4 -3 11 0 14 8 8 34 -3 34 -14z m3465 -19 c3 -5 13 -6 22 -3 12 5 15 2
10 -10 -3 -9 -2 -17 3 -17 6 0 10 -7 10 -15 0 -8 -4 -15 -10 -15 -5 0 -10 7
-10 15 0 9 -11 20 -25 25 -14 5 -25 14 -25 20 0 13 17 13 25 0z m-170 -20 c3
-6 -1 -7 -9 -4 -18 7 -21 14 -7 14 6 0 13 -4 16 -10z m-6075 -24 c0 -3 -4 -8
-10 -11 -5 -3 -10 -1 -10 4 0 6 5 11 10 11 6 0 10 -2 10 -4z m2051 -655 c-12
-21 -15 -58 -4 -48 3 4 12 2 20 -5 11 -8 18 -6 34 10 32 35 39 26 39 -43 l0
-66 25 26 c30 29 71 33 78 8 3 -10 8 -34 11 -54 5 -31 10 -36 26 -32 22 6 23
3 14 -21 -3 -9 -12 -16 -19 -16 -17 0 -40 -28 -31 -38 4 -4 13 1 20 11 18 23
21 22 23 -12 2 -27 -1 -29 -54 -40 -31 -6 -75 -11 -97 -11 -23 -1 -59 -7 -81
-15 -22 -8 -60 -15 -85 -15 -25 0 -64 -5 -86 -10 -23 -5 -64 -10 -92 -11 -28
-1 -49 -5 -47 -9 2 -3 -9 -4 -26 -2 -16 2 -32 8 -35 13 -3 5 1 6 9 3 11 -4 13
1 10 19 -4 21 0 25 31 31 20 4 42 16 49 26 6 11 15 20 19 20 16 0 50 36 68 71
11 20 26 39 33 42 8 3 25 33 38 66 13 34 27 61 31 61 5 0 8 6 8 13 0 8 8 14
17 14 9 0 26 11 37 25 23 27 33 21 17 -11z m2929 -69 c0 9 3 9 11 1 7 -7 9
-19 6 -27 -5 -13 -15 -15 -49 -10 -24 4 -50 10 -58 14 -22 12 50 30 73 18 12
-6 17 -5 17 4z m63 -16 c7 -16 -1 -26 -20 -26 -7 0 -13 9 -13 20 0 23 25 27
33 6z m37 -45 c0 -10 3 -21 7 -25 15 -14 11 -37 -5 -34 -12 2 -18 16 -20 47
-2 28 0 41 7 36 6 -3 11 -14 11 -24z m-2788 -16 c4 -17 1 -25 -8 -25 -8 0 -14
11 -14 25 0 14 4 25 9 25 5 0 11 -11 13 -25z m353 -70 c11 -2 23 -4 28 -4 4
-1 7 -7 7 -15 0 -8 6 -17 13 -19 8 -4 9 -8 1 -14 -6 -4 -8 -17 -4 -28 7 -21
-3 -82 -16 -93 -4 -4 -5 1 -1 10 6 17 -17 33 -34 22 -5 -3 -12 2 -15 10 -3 9
-12 16 -19 16 -7 0 -16 17 -20 38 -3 20 -13 47 -21 59 -12 19 -12 22 4 26 9 2
26 2 37 -1 11 -2 29 -5 40 -7z m-1153 -31 c9 -3 18 -14 21 -25 3 -12 1 -17 -5
-12 -7 3 -8 1 -4 -6 4 -7 16 -9 28 -5 16 5 19 2 16 -13 -2 -12 -11 -17 -23
-15 -24 5 -39 27 -44 62 0 6 -8 10 -16 10 -8 0 -15 5 -15 11 0 6 6 8 13 5 6
-3 19 -9 29 -12z m-22 -54 c0 -5 -5 -10 -11 -10 -5 0 -7 5 -4 10 3 6 8 10 11
10 2 0 4 -4 4 -10z m210 -38 c0 -9 -40 -35 -46 -29 -6 6 25 37 37 37 5 0 9 -3
9 -8z m-135 -12 c3 -5 -1 -10 -9 -10 -8 0 -18 5 -21 10 -3 6 1 10 9 10 8 0 18
-4 21 -10z m60 -10 c3 -5 2 -10 -4 -10 -5 0 -13 5 -16 10 -3 6 -2 10 4 10 5 0
13 -4 16 -10z m3932 -22 c-3 -8 -6 -5 -6 6 -1 11 2 17 5 13 3 -3 4 -12 1 -19z
m-1280 -20 c-3 -7 -5 -2 -5 12 0 14 2 19 5 13 2 -7 2 -19 0 -25z m95 0 c-9 -9
-12 -7 -12 12 0 19 3 21 12 12 9 -9 9 -15 0 -24z m-2428 -13 c-4 -8 -10 -15
-14 -15 -4 0 -5 -11 -2 -25 4 -25 4 -25 -28 -9 -27 14 -34 14 -41 3 -5 -8 -9
-9 -9 -3 0 7 -7 15 -16 18 -8 3 -12 2 -9 -4 3 -6 -3 -10 -15 -10 -19 0 -20 1
-4 24 15 24 23 27 121 34 16 2 21 -2 17 -13z m-164 -20 c0 -17 -4 -18 -40 -8
l-25 7 25 7 c38 11 40 10 40 -6z m4955 -15 c3 -5 1 -10 -4 -10 -6 0 -11 5 -11
10 0 6 2 10 4 10 3 0 8 -4 11 -10z m-4735 -14 c0 -3 -4 -8 -10 -11 -5 -3 -10
-1 -10 4 0 6 5 11 10 11 6 0 10 -2 10 -4z m80 -16 c0 -5 -5 -10 -11 -10 -5 0
-7 5 -4 10 3 6 8 10 11 10 2 0 4 -4 4 -10z m3507 -6 c-3 -3 -12 -4 -19 -1 -8
3 -5 6 6 6 11 1 17 -2 13 -5z m1103 -44 c13 -8 13 -10 -2 -10 -9 0 -20 5 -23
10 -8 13 5 13 25 0z m-5600 -50 c0 -5 -4 -10 -10 -10 -5 0 -10 5 -10 10 0 6 5
10 10 10 6 0 10 -4 10 -10z m-650 -60 c0 -5 -5 -10 -11 -10 -5 0 -7 5 -4 10 3
6 8 10 11 10 2 0 4 -4 4 -10z m6360 0 c0 -5 -2 -10 -4 -10 -3 0 -8 5 -11 10
-3 6 -1 10 4 10 6 0 11 -4 11 -10z m-700 -20 c0 -5 -7 -10 -16 -10 -8 0 -12 5
-9 10 3 6 10 10 16 10 5 0 9 -4 9 -10z m-5625 -10 c-3 -5 -11 -10 -16 -10 -6
0 -7 5 -4 10 3 6 11 10 16 10 6 0 7 -4 4 -10z m5302 -102 c-3 -8 -6 -5 -6 6
-1 11 2 17 5 13 3 -3 4 -12 1 -19z m-8 -67 c-3 -6 -10 -7 -18 -2 -7 5 -10 14
-6 21 9 14 29 -2 24 -19z m1075 -16 c-4 -8 -10 -12 -15 -9 -11 6 -2 24 11 24
5 0 7 -7 4 -15z m526 -225 c0 -5 -8 -10 -17 -10 -15 0 -16 2 -3 10 19 12 20
12 20 0z m25 -156 c-5 -28 -9 -34 -16 -23 -10 17 -12 63 -2 73 14 14 25 -14
18 -50z m-6885 -74 c0 -5 -7 -10 -15 -10 -8 0 -15 5 -15 10 0 6 7 10 15 10 8
0 15 -4 15 -10z m60 -117 c0 -10 -4 -14 -8 -8 -4 6 -11 13 -16 18 -5 4 -2 7 7
7 10 0 17 -8 17 -17z m6220 -9 c0 -8 -5 -12 -10 -9 -6 4 -8 11 -5 16 9 14 15
11 15 -7z m-60 -124 c0 -5 -4 -10 -10 -10 -5 0 -10 5 -10 10 0 6 5 10 10 10 6
0 10 -4 10 -10z m-6145 -90 c3 -11 3 -24 0 -30 -12 -19 -22 -10 -23 20 -1 34
13 40 23 10z m145 -249 c0 -6 -4 -13 -10 -16 -5 -3 -10 1 -10 9 0 9 5 16 10
16 6 0 10 -4 10 -9z m5790 -201 c0 -5 -5 -10 -11 -10 -5 0 -7 5 -4 10 3 6 8
10 11 10 2 0 4 -4 4 -10z m-105 -50 c19 -8 19 -9 -2 -9 -16 -1 -21 -6 -17 -16
4 -9 0 -15 -8 -15 -23 0 -28 11 -15 31 13 21 14 21 42 9z m-5620 -40 c-3 -5
-12 -10 -18 -10 -7 0 -6 4 3 10 19 12 23 12 15 0z m5685 -100 c0 -5 -4 -10 -9
-10 -6 0 -13 5 -16 10 -3 6 1 10 9 10 9 0 16 -4 16 -10z m-152 -105 c-3 -3 -9
2 -12 12 -6 14 -5 15 5 6 7 -7 10 -15 7 -18z m-22 -31 c-4 -9 -9 -15 -11 -12
-3 3 -3 13 1 22 4 9 9 15 11 12 3 -3 3 -13 -1 -22z m-5479 -20 c-3 -3 -12 -4
-19 -1 -8 3 -5 6 6 6 11 1 17 -2 13 -5z m5526 -1 c-7 -2 -19 -2 -25 0 -7 3 -2
5 12 5 14 0 19 -2 13 -5z m-219 -144 c-3 -5 -10 -7 -15 -3 -5 3 -7 10 -3 15 3
5 10 7 15 3 5 -3 7 -10 3 -15z m-5224 -39 c0 -5 -4 -10 -10 -10 -5 0 -10 5
-10 10 0 6 5 10 10 10 6 0 10 -4 10 -10z m5210 -8 c0 -13 -12 -22 -22 -16 -10
6 -1 24 13 24 5 0 9 -4 9 -8z m-20 -58 c0 -19 -4 -25 -14 -21 -8 3 -17 1 -20
-6 -3 -7 -4 -3 -3 8 5 43 37 60 37 19z m-57 10 c7 -8 -17 -34 -31 -34 -6 0
-13 -6 -15 -12 -3 -7 -6 -1 -6 14 -1 30 33 51 52 32z m-5012 -97 c-1 -12 -15
-9 -19 4 -3 6 1 10 8 8 6 -3 11 -8 11 -12z m5097 -9 c-3 -7 -11 -13 -18 -13
-7 0 -15 6 -17 13 -3 7 4 12 17 12 13 0 20 -5 18 -12z m-4980 -40 c-6 -18 -28
-21 -28 -4 0 9 7 16 16 16 9 0 14 -5 12 -12z m4796 -23 c-4 -8 -8 -15 -10 -15
-2 0 -4 7 -4 15 0 8 4 15 10 15 5 0 7 -7 4 -15z m-4760 -31 c9 -3 16 -9 16
-13 0 -13 -59 -71 -64 -63 -6 10 5 27 24 36 8 3 3 4 -12 1 -33 -6 -34 -2 -11
25 19 22 23 23 47 14z m4497 -151 c-8 -15 -10 -15 -11 -2 0 17 10 32 18 25 2
-3 -1 -13 -7 -23z m-4535 -120 c-10 -10 -19 5 -10 18 6 11 8 11 12 0 2 -7 1
-15 -2 -18z m-751 -13 c-3 -5 -18 -10 -33 -9 l-27 1 25 8 c35 11 42 11 35 0z
m5335 -20 c13 -9 13 -10 0 -9 -8 0 -24 4 -35 9 l-20 9 20 0 c11 0 27 -4 35 -9z
m-160 -50 c0 -4 -6 -10 -14 -13 -10 -4 -12 0 -9 14 5 18 23 18 23 -1z m1110
-2 c0 -16 -3 -19 -11 -11 -6 6 -8 16 -5 22 11 17 16 13 16 -11z m-1173 -50
c-3 -7 -5 -2 -5 12 0 14 2 19 5 13 2 -7 2 -19 0 -25z m-4242 -7 c3 -5 1 -12
-5 -16 -5 -3 -10 1 -10 9 0 18 6 21 15 7z m5405 -41 c0 -15 -9 -35 -19 -44
-19 -18 -20 -17 -16 10 2 16 4 42 4 58 1 24 3 27 16 16 8 -7 15 -25 15 -40z
m-1208 -40 c5 -34 -7 -41 -17 -10 -5 17 0 40 9 40 2 0 6 -13 8 -30z m-3572
-49 c0 -6 -4 -13 -10 -16 -5 -3 -10 1 -10 9 0 9 5 16 10 16 6 0 10 -4 10 -9z"/>
<path d="M2420 3398 c-12 -22 -12 -22 6 -6 10 10 15 20 12 24 -4 3 -12 -5 -18
-18z"/>
<path d="M3602 7119 c2 -7 10 -15 17 -17 8 -3 12 1 9 9 -2 7 -10 15 -17 17 -8
3 -12 -1 -9 -9z"/>
<path d="M3607 7073 c-13 -13 -7 -21 13 -16 11 3 17 9 14 14 -6 11 -18 12 -27
2z"/>
<path d="M3970 7062 c0 -4 10 -13 23 -21 22 -14 22 -14 3 8 -20 22 -26 25 -26
13z"/>
<path d="M4205 7040 c-3 -5 -1 -10 4 -10 6 0 11 5 11 10 0 6 -2 10 -4 10 -3 0
-8 -4 -11 -10z"/>
<path d="M5118 6923 c7 -3 16 -2 19 1 4 3 -2 6 -13 5 -11 0 -14 -3 -6 -6z"/>
<path d="M2670 6535 c0 -8 5 -15 10 -15 6 0 10 7 10 15 0 8 -4 15 -10 15 -5 0
-10 -7 -10 -15z"/>
<path d="M3010 6525 c-6 -7 -10 -24 -7 -37 4 -21 4 -21 6 4 0 17 8 28 19 30
11 2 13 6 6 11 -7 4 -17 0 -24 -8z"/>
<path d="M5900 6270 c0 -5 5 -10 10 -10 6 0 10 5 10 10 0 6 -4 10 -10 10 -5 0
-10 -4 -10 -10z"/>
<path d="M5913 6220 c0 -16 4 -27 9 -24 4 3 8 14 8 24 0 10 -4 21 -8 24 -5 3
-9 -8 -9 -24z"/>
<path d="M5885 6160 c3 -5 8 -10 11 -10 2 0 4 5 4 10 0 6 -5 10 -11 10 -5 0
-7 -4 -4 -10z"/>
<path d="M5836 5945 c-3 -9 -6 -22 -5 -28 0 -7 5 -1 10 12 5 13 8 26 5 28 -2
2 -6 -3 -10 -12z"/>
<path d="M5926 5661 c-4 -5 -2 -12 3 -15 5 -4 12 -2 15 3 4 5 2 12 -3 15 -5 4
-12 2 -15 -3z"/>
<path d="M6450 4742 c0 -23 27 -61 46 -65 16 -3 21 0 17 10 -3 7 -13 13 -22
13 -11 0 -12 3 -4 8 9 6 7 12 -7 25 -22 19 -30 21 -30 9z"/>
<path d="M1865 4690 c-3 -5 -1 -10 4 -10 6 0 11 5 11 10 0 6 -2 10 -4 10 -3 0
-8 -4 -11 -10z"/>
<path d="M2025 4640 c3 -5 12 -7 20 -3 21 7 19 13 -6 13 -11 0 -18 -4 -14 -10z"/>
<path d="M2325 4610 c4 -6 11 -8 16 -5 14 9 11 15 -7 15 -8 0 -12 -5 -9 -10z"/>
<path d="M6226 4551 c22 -21 27 -21 18 3 -3 9 -13 16 -22 16 -13 0 -12 -3 4
-19z"/>
<path d="M5975 4540 c-3 -5 1 -10 10 -10 9 0 13 5 10 10 -3 6 -8 10 -10 10 -2
0 -7 -4 -10 -10z"/>
<path d="M2470 4521 c0 -5 5 -13 10 -16 6 -3 10 -2 10 4 0 5 -4 13 -10 16 -5
3 -10 2 -10 -4z"/>
<path d="M5372 4499 c2 -7 10 -15 17 -17 8 -3 12 1 9 9 -2 7 -10 15 -17 17 -8
3 -12 -1 -9 -9z"/>
<path d="M2699 4464 c-9 -11 -8 -14 2 -13 16 0 57 17 49 19 -26 8 -41 6 -51
-6z"/>
<path d="M5737 4469 c7 -7 15 -10 18 -7 3 3 -2 9 -12 12 -14 6 -15 5 -6 -5z"/>
<path d="M5285 4460 c3 -5 11 -10 16 -10 6 0 7 5 4 10 -3 6 -11 10 -16 10 -6
0 -7 -4 -4 -10z"/>
<path d="M5800 4450 c0 -5 12 -10 28 -9 24 0 25 1 7 9 -27 12 -35 12 -35 0z"/>
<path d="M5732 4429 c2 -7 10 -15 17 -17 8 -3 12 1 9 9 -2 7 -10 15 -17 17 -8
3 -12 -1 -9 -9z"/>
<path d="M5175 4420 c3 -5 8 -10 11 -10 2 0 4 5 4 10 0 6 -5 10 -11 10 -5 0
-7 -4 -4 -10z"/>
<path d="M4413 4390 c-13 -10 -23 -21 -23 -25 0 -3 -14 -18 -31 -33 -29 -23
-30 -27 -13 -33 29 -12 39 -10 26 3 -9 9 -3 21 30 55 43 44 50 65 11 33z"/>
<path d="M2880 4390 c0 -5 5 -10 11 -10 5 0 7 5 4 10 -3 6 -8 10 -11 10 -2 0
-4 -4 -4 -10z"/>
<path d="M3060 4300 c0 -5 5 -10 10 -10 6 0 10 5 10 10 0 6 -4 10 -10 10 -5 0
-10 -4 -10 -10z"/>
<path d="M6606 4282 c-7 -11 29 -64 37 -55 13 12 7 51 -9 57 -20 8 -22 8 -28
-2z"/>
<path d="M4305 4270 c3 -5 11 -10 16 -10 6 0 7 5 4 10 -3 6 -11 10 -16 10 -6
0 -7 -4 -4 -10z"/>
<path d="M4305 4237 c-4 -10 -5 -21 -1 -24 10 -10 18 4 13 24 -4 17 -4 17 -12
0z"/>
<path d="M3340 4090 c0 -5 4 -10 9 -10 6 0 13 5 16 10 3 6 -1 10 -9 10 -9 0
-16 -4 -16 -10z"/>
<path d="M4145 4080 c3 -5 8 -10 11 -10 2 0 4 5 4 10 0 6 -5 10 -11 10 -5 0
-7 -4 -4 -10z"/>
<path d="M3335 4060 c-3 -5 -1 -10 4 -10 6 0 11 5 11 10 0 6 -2 10 -4 10 -3 0
-8 -4 -11 -10z"/>
<path d="M4055 3860 c-3 -5 1 -10 10 -10 9 0 14 -4 11 -8 -2 -4 4 -8 14 -9 18
-2 18 -1 -1 18 -22 22 -25 23 -34 9z"/>
<path d="M3530 3749 c0 -5 5 -7 10 -4 6 3 10 8 10 11 0 2 -4 4 -10 4 -5 0 -10
-5 -10 -11z"/>
<path d="M4145 3400 c-3 -5 -1 -10 4 -10 6 0 11 5 11 10 0 6 -2 10 -4 10 -3 0
-8 -4 -11 -10z"/>
<path d="M5600 3319 c0 -11 4 -18 10 -14 5 3 7 12 3 20 -7 21 -13 19 -13 -6z"/>
<path d="M1125 3159 c-8 -13 -6 -15 23 -23 24 -8 29 3 10 22 -15 15 -25 15
-33 1z"/>
<path d="M1117 3119 c7 -7 15 -10 18 -7 3 3 -2 9 -12 12 -14 6 -15 5 -6 -5z"/>
<path d="M2730 3050 c0 -5 7 -10 15 -10 8 0 15 5 15 10 0 6 -7 10 -15 10 -8 0
-15 -4 -15 -10z"/>
<path d="M5836 3043 c-6 -14 -5 -15 5 -6 7 7 10 15 7 18 -3 3 -9 -2 -12 -12z"/>
<path d="M4272 3015 c43 -29 48 -30 48 -10 0 7 8 19 18 24 9 6 12 11 7 11 -6
0 -16 -5 -23 -12 -9 -9 -15 -9 -24 0 -7 7 -23 12 -37 12 -24 0 -24 -1 11 -25z"/>
<path d="M1355 3010 c3 -5 8 -10 11 -10 2 0 4 5 4 10 0 6 -5 10 -11 10 -5 0
-7 -4 -4 -10z"/>
<path d="M2870 2991 c0 -18 18 -21 30 -6 10 13 9 15 -9 15 -11 0 -21 -4 -21
-9z"/>
<path d="M2906 2965 c4 -8 14 -15 24 -15 10 0 21 -8 23 -17 3 -12 5 -8 6 9 1
21 -3 25 -19 21 -11 -3 -20 0 -20 6 0 6 -4 11 -10 11 -5 0 -7 -7 -4 -15z"/>
<path d="M4880 2949 c0 -18 2 -19 15 -9 15 12 12 30 -6 30 -5 0 -9 -10 -9 -21z"/>
<path d="M2875 2949 c-4 -6 -5 -12 -2 -15 2 -3 7 2 10 11 7 17 1 20 -8 4z"/>
<path d="M877 2924 c-4 -4 -7 -16 -7 -27 0 -11 3 -17 7 -14 3 4 13 1 21 -6 13
-10 14 -9 5 8 -6 11 -12 26 -14 33 -3 7 -8 10 -12 6z"/>
<path d="M5056 2906 c8 -22 36 -30 32 -9 -2 10 -11 19 -21 21 -12 2 -15 -1
-11 -12z"/>
<path d="M5110 2908 c0 -9 5 -20 10 -23 13 -8 13 5 0 25 -8 13 -10 13 -10 -2z"/>
<path d="M4930 2890 c0 -12 8 -17 26 -17 15 0 30 -7 35 -14 8 -12 10 -12 18 0
5 7 14 10 20 7 13 -8 14 3 3 21 -5 8 -13 9 -22 3 -8 -5 -19 -5 -25 -1 -5 5
-20 11 -32 14 -17 4 -23 1 -23 -13z"/>
<path d="M2945 2891 c-6 -11 9 -23 19 -14 9 9 7 23 -3 23 -6 0 -12 -4 -16 -9z"/>
<path d="M4852 2888 c3 -7 13 -15 22 -16 12 -3 17 1 14 10 -3 7 -13 15 -22 16
-12 3 -17 -1 -14 -10z"/>
<path d="M6898 2883 c6 -2 12 -13 12 -24 0 -10 5 -19 11 -19 6 0 9 6 6 14 -3
7 0 19 6 25 8 8 3 11 -18 10 -17 0 -24 -3 -17 -6z"/>
<path d="M2506 2864 c-9 -24 -7 -28 9 -14 17 14 20 30 6 30 -5 0 -12 -7 -15
-16z"/>
<path d="M3017 2873 c-16 -15 -6 -30 18 -25 29 5 34 32 7 32 -10 0 -22 -3 -25
-7z"/>
<path d="M4901 2866 c-11 -13 -9 -17 15 -27 16 -6 36 -15 44 -20 8 -5 35 -19
60 -32 25 -13 54 -28 65 -35 32 -18 168 -79 190 -85 11 -3 52 -17 90 -32 63
-24 117 -36 225 -50 19 -2 57 -9 84 -15 51 -11 63 -9 51 10 -4 6 -15 8 -26 5
-11 -4 -19 -2 -19 6 0 8 -13 10 -40 6 -22 -3 -42 -1 -45 3 -3 4 -15 6 -28 3
-20 -5 -19 -2 8 22 17 14 25 24 18 21 -7 -4 -13 3 -16 16 l-4 23 -8 -23 c-7
-22 -8 -22 -21 -4 -7 10 -13 37 -12 60 0 36 3 42 22 42 12 0 32 -7 45 -16 28
-20 53 -4 30 18 -20 20 -47 29 -106 34 -42 4 -53 2 -53 -10 0 -8 5 -16 11 -18
6 -2 19 -27 29 -55 l18 -52 -29 6 c-16 3 -35 1 -41 -4 -17 -12 -58 -11 -58 2
-1 6 8 11 20 13 23 4 24 6 8 31 -9 15 -8 26 6 56 13 28 15 40 7 48 -9 9 -14 8
-21 -2 -7 -12 -12 -12 -23 -3 -22 18 -79 8 -95 -17 -18 -26 -36 -28 -29 -1 6
23 -7 29 -53 23 -33 -4 -34 -4 -16 11 11 9 31 16 45 17 25 1 25 1 -4 10 -16 5
-42 6 -57 3 -17 -3 -28 -1 -28 5 0 17 -30 13 -36 -4 -7 -17 -39 -20 -49 -6 -3
6 -18 5 -38 -3 -17 -8 -39 -11 -47 -9 -25 7 -65 27 -71 36 -3 4 -11 1 -18 -7z
m589 -226 c8 -5 11 -10 5 -10 -5 0 -17 5 -25 10 -8 5 -10 10 -5 10 6 0 17 -5
25 -10z"/>
<path d="M7030 2865 c13 -16 30 -16 33 -1 1 5 -9 11 -22 13 -20 3 -22 1 -11
-12z"/>
<path d="M5699 2851 c7 -5 11 -13 7 -19 -3 -6 -2 -13 3 -16 5 -3 11 5 13 17 3
18 0 23 -16 25 -15 1 -17 -1 -7 -7z"/>
<path d="M946 2832 c-2 -4 -1 -14 5 -22 7 -12 9 -10 9 8 0 23 -5 28 -14 14z"/>
<path d="M4865 2826 c-6 -13 -3 -21 8 -28 10 -5 17 -16 17 -23 0 -8 5 -15 10
-15 6 0 19 -9 30 -20 11 -11 26 -17 35 -14 9 4 26 -3 39 -15 12 -12 26 -18 29
-14 4 3 7 1 7 -5 0 -7 9 -12 20 -12 11 0 20 -5 20 -11 0 -5 14 -15 30 -20 28
-10 41 -29 20 -29 -5 0 -10 -5 -10 -11 0 -8 18 -10 56 -7 51 4 56 3 65 -19 10
-26 49 -32 49 -7 0 8 -4 13 -8 10 -4 -2 -13 4 -20 15 -10 16 -9 19 3 19 27 0
16 15 -22 32 -21 8 -41 16 -46 17 -4 0 -24 10 -44 21 -21 11 -44 20 -51 20 -7
0 -22 9 -33 19 -12 11 -33 22 -47 26 -15 4 -35 14 -45 23 -10 9 -30 17 -45 18
-15 1 -32 2 -39 3 -6 0 -13 11 -16 24 -3 20 -4 21 -12 3z"/>
<path d="M2360 2811 c0 -10 9 -12 38 -6 56 10 62 25 9 22 -32 -1 -47 -6 -47
-16z"/>
<path d="M2325 2800 c-3 -6 1 -7 9 -4 18 7 21 14 7 14 -6 0 -13 -4 -16 -10z"/>
<path d="M2996 2802 c7 -4 14 -18 15 -32 3 -15 12 -26 24 -29 19 -3 19 -3 3
16 -10 11 -18 27 -18 36 0 10 -8 17 -17 17 -12 0 -14 -3 -7 -8z"/>
<path d="M2200 2774 l-25 -15 25 5 c14 3 33 6 43 6 9 0 17 5 17 10 0 15 -31
12 -60 -6z"/>
<path d="M7179 2748 c-5 -21 -6 -58 -1 -58 4 0 13 14 19 30 9 25 9 30 -3 30
-8 0 -14 -1 -15 -2z"/>
<path d="M5572 2710 c0 -14 2 -19 5 -12 2 6 2 18 0 25 -3 6 -5 1 -5 -13z"/>
<path d="M2975 2704 c-19 -14 -19 -14 5 -11 13 2 26 9 28 15 5 16 -9 14 -33
-4z"/>
<path d="M7120 2699 c0 -5 5 -7 10 -4 6 3 10 8 10 11 0 2 -4 4 -10 4 -5 0 -10
-5 -10 -11z"/>
<path d="M4970 2680 c-12 -7 -11 -10 5 -16 11 -4 24 -9 28 -12 5 -2 4 5 -2 17
-13 24 -12 23 -31 11z"/>
<path d="M5025 2630 c3 -5 8 -10 11 -10 2 0 4 5 4 10 0 6 -5 10 -11 10 -5 0
-7 -4 -4 -10z"/>
<path d="M5936 2631 c-18 -7 -18 -8 5 -14 39 -11 59 -8 59 8 0 16 -31 19 -64
6z"/>
<path d="M5752 2618 c5 -15 28 -23 28 -10 0 5 -7 13 -16 16 -10 4 -14 1 -12
-6z"/>
<path d="M5330 2610 c0 -5 5 -10 11 -10 5 0 7 5 4 10 -3 6 -8 10 -11 10 -2 0
-4 -4 -4 -10z"/>
<path d="M5300 2599 c0 -5 5 -7 10 -4 6 3 10 8 10 11 0 2 -4 4 -10 4 -5 0 -10
-5 -10 -11z"/>
<path d="M5793 2584 c-11 -23 -10 -24 9 -18 15 4 19 3 14 -7 -4 -8 -1 -6 7 4
8 9 20 17 28 17 8 1 3 7 -11 15 -33 19 -33 19 -47 -11z"/>
<path d="M5970 2590 c0 -5 5 -10 10 -10 6 0 10 5 10 10 0 6 -4 10 -10 10 -5 0
-10 -4 -10 -10z"/>
<path d="M7090 2571 c0 -5 11 -11 25 -13 28 -6 34 6 9 16 -22 8 -34 7 -34 -3z"/>
<path d="M5920 2560 c0 -5 7 -7 15 -4 8 4 15 8 15 10 0 2 -7 4 -15 4 -8 0 -15
-4 -15 -10z"/>
<path d="M2912 2535 c0 -16 2 -22 5 -12 2 9 2 23 0 30 -3 6 -5 -1 -5 -18z"/>
<path d="M5195 2540 c-3 -5 -1 -10 4 -10 6 0 11 5 11 10 0 6 -2 10 -4 10 -3 0
-8 -4 -11 -10z"/>
<path d="M7161 2294 c0 -11 3 -14 6 -6 3 7 2 16 -1 19 -3 4 -6 -2 -5 -13z"/>
<path d="M2890 2249 c0 -5 -5 -7 -12 -3 -7 4 -8 3 -4 -4 4 -6 13 -9 21 -5 17
6 20 23 5 23 -5 0 -10 -5 -10 -11z"/>
<path d="M2836 2242 c-3 -5 1 -18 9 -28 14 -18 14 -18 15 3 0 23 -15 39 -24
25z"/>
<path d="M1000 2220 c0 -5 5 -10 10 -10 6 0 10 5 10 10 0 6 -4 10 -10 10 -5 0
-10 -4 -10 -10z"/>
<path d="M2815 2180 c-3 -5 -1 -10 4 -10 6 0 11 5 11 10 0 6 -2 10 -4 10 -3 0
-8 -4 -11 -10z"/>
<path d="M2858 2174 c-5 -4 -8 -16 -8 -28 0 -14 3 -17 11 -9 6 6 9 19 7 28 -1
9 -6 13 -10 9z"/>
<path d="M2824 2139 c1 -14 -6 -23 -18 -25 -18 -2 -66 -49 -66 -63 0 -3 7 -18
14 -33 14 -27 14 -28 -12 -29 -17 -1 -21 -3 -9 -6 34 -9 12 -30 -25 -24 -5 0
-8 -6 -8 -15 0 -11 6 -14 23 -9 22 7 22 7 2 -8 -11 -9 -17 -19 -12 -23 4 -4 0
-16 -10 -26 -9 -10 -14 -21 -11 -24 11 -10 57 39 69 73 6 18 15 33 20 33 5 0
9 6 9 14 0 7 7 19 15 26 9 7 14 19 11 26 -3 7 0 15 7 18 9 5 9 7 0 12 -18 8
-16 27 2 20 12 -4 15 4 15 39 0 25 -4 45 -8 45 -5 0 -8 -10 -8 -21z m-27 -61
c-3 -8 -6 -5 -6 6 -1 11 2 17 5 13 3 -3 4 -12 1 -19z"/>
<path d="M7898 2100 c-3 -18 0 -29 5 -27 13 4 19 44 8 51 -5 3 -11 -8 -13 -24z"/>
<path d="M4123 2004 c-7 -18 11 -39 26 -30 17 11 13 46 -4 46 -9 0 -18 -7 -22
-16z"/>
<path d="M6480 1944 c0 -8 5 -12 10 -9 6 3 10 10 10 16 0 5 -4 9 -10 9 -5 0
-10 -7 -10 -16z"/>
<path d="M6936 1833 c-4 -4 -13 -8 -19 -8 -7 0 -13 -15 -15 -32 -2 -19 1 -33
7 -33 6 0 11 9 11 19 0 28 20 37 21 9 l0 -23 10 23 c9 25 -1 58 -15 45z"/>
<path d="M7000 1829 c0 -5 5 -7 10 -4 6 3 10 8 10 11 0 2 -4 4 -10 4 -5 0 -10
-5 -10 -11z"/>
<path d="M7992 1783 c-1 -13 -9 -23 -17 -23 -8 0 -15 -9 -15 -20 0 -11 -5 -20
-11 -20 -6 0 -9 -6 -7 -12 5 -15 -9 -31 -36 -41 -21 -8 -15 -19 13 -24 10 -1
32 13 50 31 29 30 32 38 28 82 -2 27 -4 39 -5 27z"/>
<path d="M1140 1780 c0 -5 5 -10 10 -10 6 0 10 5 10 10 0 6 -4 10 -10 10 -5 0
-10 -4 -10 -10z"/>
<path d="M7008 1755 c-10 -10 5 -55 18 -55 8 0 14 5 14 10 0 6 -5 10 -11 10
-8 0 -9 4 0 13 14 18 -5 38 -21 22z"/>
<path d="M1278 1713 c7 -3 16 -2 19 1 4 3 -2 6 -13 5 -11 0 -14 -3 -6 -6z"/>
<path d="M1340 1710 c0 -5 9 -14 19 -19 15 -8 20 -7 25 5 9 23 8 24 -19 24
-14 0 -25 -4 -25 -10z"/>
<path d="M1278 1683 c7 -3 16 -2 19 1 4 3 -2 6 -13 5 -11 0 -14 -3 -6 -6z"/>
<path d="M4295 1680 c-3 -5 1 -10 9 -10 10 0 13 -6 9 -17 -5 -14 -3 -16 7 -6
7 6 10 19 7 27 -7 18 -23 21 -32 6z"/>
<path d="M1160 1660 c0 -5 5 -10 10 -10 6 0 10 5 10 10 0 6 -4 10 -10 10 -5 0
-10 -4 -10 -10z"/>
<path d="M4356 1616 c9 -51 31 -95 39 -75 2 8 -6 37 -20 64 l-25 50 6 -39z"/>
<path d="M1245 1580 c-3 -5 -1 -10 4 -10 6 0 11 5 11 10 0 6 -2 10 -4 10 -3 0
-8 -4 -11 -10z"/>
<path d="M2720 1547 c0 -10 -8 -17 -19 -17 -23 0 -38 -19 -23 -29 7 -4 5 -13
-4 -26 -13 -17 -16 -18 -24 -5 -8 13 -10 12 -10 -3 0 -14 -4 -16 -19 -7 -13 7
-22 7 -26 0 -3 -5 -3 -10 0 -10 9 0 -17 -23 -42 -37 -24 -13 -60 -7 -86 15
-13 12 -20 13 -29 4 -7 -7 -8 -12 -4 -12 5 0 3 -6 -3 -14 -21 -25 -25 -117 -7
-160 9 -21 16 -45 16 -53 0 -9 17 -36 38 -62 35 -44 62 -85 62 -96 0 -3 -9 -5
-20 -5 -15 0 -20 -6 -19 -27 0 -16 3 -22 6 -15 10 24 25 12 19 -15 -14 -56
-18 -145 -7 -138 7 4 11 -12 11 -49 0 -38 4 -56 13 -56 9 0 9 -2 0 -8 -6 -4
-14 -21 -18 -37 -5 -21 -4 -26 3 -16 14 19 29 6 37 -30 5 -23 11 -29 26 -24
10 3 28 8 39 11 13 3 20 1 20 -9 0 -8 7 -18 16 -21 10 -4 14 -14 11 -25 -2
-10 -1 -25 4 -33 6 -11 0 -21 -21 -36 -18 -14 -27 -28 -23 -37 4 -11 9 -13 18
-5 7 6 17 10 21 8 17 -5 133 26 128 34 -7 11 29 10 60 -2 20 -7 24 -6 19 5 -3
8 0 15 6 15 6 0 11 -4 11 -10 0 -17 18 -11 24 8 3 9 4 2 2 -16 -3 -37 8 -49
30 -31 13 10 13 15 0 34 -16 24 -12 35 11 35 7 0 13 -9 13 -20 0 -11 5 -20 10
-20 19 0 10 -28 -10 -33 -11 -3 -20 -12 -20 -21 0 -21 10 -20 39 5 21 17 23
23 13 39 -10 16 -9 21 8 30 17 9 20 8 20 -10 0 -11 7 -20 15 -20 9 0 15 9 15
22 0 28 15 13 24 -24 3 -15 1 -30 -4 -33 -6 -4 -8 -10 -5 -15 7 -11 68 -1 78
13 5 7 6 2 2 -11 -4 -15 -1 -24 9 -28 9 -3 13 -11 9 -17 -4 -6 0 -8 11 -4 13
5 15 3 8 -11 -10 -19 -5 -42 9 -42 5 0 9 9 9 20 0 11 5 20 10 20 14 0 13 -43
-2 -58 -6 -6 -8 -15 -4 -19 4 -4 11 -1 17 7 6 10 11 12 17 4 5 -8 13 -6 25 6
16 15 16 18 2 23 -8 4 -15 12 -15 18 0 8 4 8 15 -1 8 -6 19 -9 24 -6 5 4 12 2
16 -4 3 -5 15 -10 27 -10 17 0 18 2 8 15 -7 8 -19 15 -26 15 -8 0 -14 4 -14 9
0 14 59 41 88 41 17 0 22 4 19 14 -3 8 1 20 9 26 8 7 14 22 14 33 0 20 0 20
15 1 14 -19 14 -18 15 4 0 12 4 22 10 22 6 0 6 9 0 26 -10 24 -9 25 20 22 18
-2 34 3 39 10 5 8 12 14 17 15 5 1 9 12 9 25 -1 14 4 21 11 18 7 -3 15 2 18
10 3 8 1 14 -5 14 -6 0 -7 5 -3 11 4 8 9 7 14 -2 5 -7 16 -14 25 -15 13 -2 14
0 4 12 -20 25 0 29 22 5 14 -14 30 -21 43 -19 12 3 28 -2 36 -11 12 -13 12
-14 -2 -8 -12 4 -15 2 -12 -8 3 -7 13 -13 22 -13 9 0 30 -3 46 -7 25 -7 28 -5
23 9 -4 11 -1 16 11 17 28 2 47 -2 50 -12 2 -5 15 -9 28 -9 13 0 24 -6 24 -12
0 -8 7 -5 15 6 8 11 15 14 15 8 0 -16 37 -15 44 1 3 6 5 3 3 -8 -1 -11 3 -20
8 -20 6 0 9 6 8 13 0 8 5 11 13 8 7 -3 16 -1 20 5 3 6 12 8 19 5 8 -3 19 2 26
10 8 10 21 13 36 9 16 -4 25 -1 29 10 4 8 11 15 16 15 6 0 8 -7 4 -15 -3 -9 0
-15 9 -15 8 0 15 5 15 10 0 6 7 10 16 10 8 0 12 4 9 10 -6 10 -2 12 33 13 9 1
25 13 34 27 10 14 18 19 18 13 0 -9 7 -7 20 4 24 21 26 33 3 33 -14 0 -13 3 5
20 12 11 25 32 28 45 3 14 11 25 16 25 6 0 8 7 4 15 -3 9 0 15 10 15 11 0 15
9 13 33 -1 17 4 46 11 62 7 17 12 40 11 52 -1 12 6 26 16 31 16 9 16 13 3 39
-8 15 -23 36 -34 45 -18 17 -20 17 -33 0 -10 -12 -16 -14 -19 -4 -3 6 -19 12
-36 12 -25 0 -28 3 -23 20 6 18 3 19 -27 14 -18 -3 -39 -7 -45 -10 -7 -2 -13
1 -13 6 0 6 -7 10 -15 10 -8 0 -15 5 -15 10 0 15 -40 12 -40 -2 0 -7 -5 -5
-11 5 -5 9 -15 17 -20 17 -6 0 -7 -4 -4 -10 3 -5 2 -10 -3 -10 -14 0 -33 26
-25 33 3 4 -8 7 -25 7 -18 0 -32 5 -32 11 0 6 -10 9 -22 8 -13 -1 -36 3 -51
10 -16 6 -33 9 -38 5 -5 -3 -14 -2 -20 2 -6 3 -42 7 -79 7 -59 0 -69 2 -78 21
l-11 21 0 -21 c-1 -18 -8 -23 -42 -26 -43 -4 -63 6 -29 15 11 3 20 11 20 17 0
10 -3 10 -15 0 -11 -9 -15 -10 -15 0 0 6 -12 -2 -26 -19 -14 -17 -29 -29 -34
-26 -4 3 -11 -2 -14 -11 -4 -11 -13 -13 -27 -9 -18 6 -21 4 -16 -9 4 -9 1 -16
-6 -16 -9 0 -9 -2 1 -9 29 -18 -18 -35 -99 -35 -57 -1 -79 -4 -79 -14 0 -9 -5
-10 -19 -2 -29 15 -51 12 -51 -7 -1 -17 -1 -17 -11 0 -7 12 -23 17 -53 17 -27
0 -48 6 -56 15 -10 12 -16 13 -26 4 -8 -6 -15 -9 -15 -5 -1 3 -3 11 -4 16 -1
6 -3 13 -4 17 0 4 -6 2 -13 -5 -7 -7 -19 -12 -27 -12 -14 0 -14 1 -1 10 13 8
12 10 -2 10 -10 0 -18 5 -18 11 0 5 -4 7 -10 4 -5 -3 -10 2 -10 12 0 10 -10
23 -22 28 -13 6 -27 20 -33 33 -5 12 -17 22 -25 23 -10 0 -11 2 -2 6 15 6 16
23 1 23 -14 0 -33 20 -52 55 -9 17 -16 24 -17 18 0 -22 -20 -14 -20 8 0 11 -4
17 -10 14 -5 -3 -10 1 -10 10 0 8 -8 18 -17 22 -24 8 -53 39 -46 47 4 3 -2 6
-12 6 -10 0 -27 7 -37 17 -17 15 -18 15 -18 0z m1700 -436 c0 -5 -7 -11 -14
-14 -10 -4 -13 -1 -9 9 6 15 23 19 23 5z m-1683 -533 c-3 -8 -6 -5 -6 6 -1 11
2 17 5 13 3 -3 4 -12 1 -19z m293 -8 c0 -5 -2 -10 -4 -10 -3 0 -8 5 -11 10 -3
6 -1 10 4 10 6 0 11 -4 11 -10z m-154 -27 c-3 -28 -20 -41 -31 -24 -7 12 12
51 25 51 5 0 7 -12 6 -27z m-166 7 c0 -5 -2 -10 -4 -10 -3 0 -8 5 -11 10 -3 6
-1 10 4 10 6 0 11 -4 11 -10z m407 -82 c-3 -8 -6 -5 -6 6 -1 11 2 17 5 13 3
-3 4 -12 1 -19z"/>
<path d="M1280 1540 c0 -5 5 -10 10 -10 6 0 10 5 10 10 0 6 -4 10 -10 10 -5 0
-10 -4 -10 -10z"/>
<path d="M4398 1496 c-7 -33 7 -55 23 -39 9 9 9 15 0 27 -7 8 -10 20 -6 26 3
5 2 10 -3 10 -5 0 -12 -11 -14 -24z"/>
<path d="M1198 1483 c-10 -2 -18 -9 -18 -15 0 -5 7 -8 15 -4 8 3 15 1 15 -3 0
-5 9 -7 20 -4 15 4 20 0 20 -16 0 -11 5 -21 11 -21 6 0 9 14 7 33 -2 26 -7 32
-28 34 -14 0 -33 -1 -42 -4z"/>
<path d="M1207 1418 c10 -17 4 -51 -10 -60 -8 -5 -6 -9 6 -14 9 -3 17 -15 17
-27 0 -28 13 -13 17 20 5 45 -6 93 -23 93 -10 0 -12 -5 -7 -12z"/>
<path d="M1640 1400 c0 -5 7 -10 15 -10 8 0 15 5 15 10 0 6 -7 10 -15 10 -8 0
-15 -4 -15 -10z"/>
<path d="M1260 1369 c0 -16 4 -28 9 -25 8 5 3 56 -5 56 -2 0 -4 -14 -4 -31z"/>
<path d="M4443 1384 c-3 -8 -2 -48 2 -87 5 -40 9 -89 9 -109 0 -45 7 -48 23
-10 14 30 15 104 1 96 -4 -3 -8 0 -8 5 0 6 5 11 11 11 6 0 8 8 4 19 -3 11 -2
22 4 25 13 8 -10 66 -27 66 -7 0 -15 -7 -19 -16z"/>
<path d="M4296 1214 c-8 -21 -8 -24 5 -24 5 0 7 5 4 10 -3 6 -1 10 4 10 6 0
11 5 11 10 0 16 -17 12 -24 -6z"/>
<path d="M6557 1199 c7 -7 15 -10 18 -7 3 3 -2 9 -12 12 -14 6 -15 5 -6 -5z"/>
<path d="M1270 1171 c0 -5 5 -13 10 -16 6 -3 10 -2 10 4 0 5 -4 13 -10 16 -5
3 -10 2 -10 -4z"/>
<path d="M4325 1160 c-3 -5 1 -10 9 -10 9 0 16 5 16 10 0 6 -4 10 -9 10 -6 0
-13 -4 -16 -10z"/>
<path d="M1445 940 c-4 -7 -1 -16 6 -21 17 -10 26 8 11 23 -6 6 -12 6 -17 -2z"/>
<path d="M1400 929 c0 -5 5 -7 10 -4 6 3 10 8 10 11 0 2 -4 4 -10 4 -5 0 -10
-5 -10 -11z"/>
<path d="M6470 926 c0 -9 5 -16 10 -16 6 0 10 4 10 9 0 6 -4 13 -10 16 -5 3
-10 -1 -10 -9z"/>
<path d="M6390 870 c-9 -6 -10 -10 -3 -10 6 0 15 5 18 10 8 12 4 12 -15 0z"/>
<path d="M6023 838 c-11 -14 -13 -48 -3 -48 4 0 17 11 29 24 19 21 20 24 6 30
-22 8 -21 8 -32 -6z"/>
<path d="M1280 804 c0 -8 5 -12 10 -9 6 4 8 11 5 16 -9 14 -15 11 -15 -7z"/>
<path d="M2512 780 c0 -14 2 -19 5 -12 2 6 2 18 0 25 -3 6 -5 1 -5 -13z"/>
<path d="M6280 770 c-12 -7 -12 -12 -3 -21 10 -10 14 -9 19 5 8 22 2 27 -16
16z"/>
<path d="M1535 740 c-3 -5 -1 -10 4 -10 6 0 11 5 11 10 0 6 -2 10 -4 10 -3 0
-8 -4 -11 -10z"/>
<path d="M6240 671 c0 -12 5 -21 10 -21 6 0 10 6 10 14 0 8 -4 18 -10 21 -5 3
-10 -3 -10 -14z"/>
<path d="M6025 660 c3 -5 8 -10 11 -10 2 0 4 5 4 10 0 6 -5 10 -11 10 -5 0 -7
-4 -4 -10z"/>
<path d="M4715 570 c-8 -13 -1 -24 14 -19 6 3 7 10 2 18 -6 10 -10 10 -16 1z"/>
<path d="M5970 540 c0 -5 5 -10 10 -10 6 0 10 5 10 10 0 6 -4 10 -10 10 -5 0
-10 -4 -10 -10z"/>
<path d="M3515 530 c-3 -5 1 -10 9 -10 9 0 16 5 16 10 0 6 -4 10 -9 10 -6 0
-13 -4 -16 -10z"/>
<path d="M3561 525 c3 -12 15 -22 34 -26 l30 -7 -30 -1 c-17 0 -36 4 -43 11
-8 8 -15 9 -23 1 -7 -7 2 -16 32 -31 33 -16 45 -18 60 -9 28 18 12 74 -18 63
-9 -4 -22 -1 -30 6 -13 10 -15 9 -12 -7z"/>
<path d="M3845 530 c-4 -6 3 -10 14 -10 25 0 27 6 6 13 -8 4 -17 2 -20 -3z"/>
<path d="M6050 510 c0 -5 5 -10 10 -10 6 0 10 5 10 10 0 6 -4 10 -10 10 -5 0
-10 -4 -10 -10z"/>
<path d="M3486 484 c-10 -25 -7 -34 9 -34 9 0 15 9 15 25 0 28 -15 34 -24 9z"/>
<path d="M2858 478 c5 -5 16 -8 23 -6 8 3 3 7 -10 11 -17 4 -21 3 -13 -5z"/>
<path d="M3815 470 c4 -14 12 -29 17 -35 7 -7 8 -2 3 15 -4 14 -12 30 -17 35
-7 7 -8 2 -3 -15z"/>
<path d="M2788 473 c7 -3 16 -2 19 1 4 3 -2 6 -13 5 -11 0 -14 -3 -6 -6z"/>
<path d="M2820 450 c0 -5 -7 -10 -15 -10 -8 0 -15 -8 -15 -17 0 -13 3 -14 11
-6 6 6 18 9 25 6 9 -3 14 2 14 16 0 12 -4 21 -10 21 -5 0 -10 -4 -10 -10z"/>
<path d="M5940 440 c0 -11 5 -20 10 -20 6 0 10 9 10 20 0 11 -4 20 -10 20 -5
0 -10 -9 -10 -20z"/>
<path d="M3040 440 c0 -5 5 -10 10 -10 6 0 10 5 10 10 0 6 -4 10 -10 10 -5 0
-10 -4 -10 -10z"/>
<path d="M2760 410 c0 -5 5 -10 10 -10 6 0 10 5 10 10 0 6 -4 10 -10 10 -5 0
-10 -4 -10 -10z"/>
<path d="M5966 396 c3 -9 11 -16 16 -16 13 0 5 23 -10 28 -7 2 -10 -2 -6 -12z"/>
<path d="M692 378 c-17 -17 -15 -58 3 -58 10 0 15 11 15 35 0 39 -1 40 -18 23z"/>
<path d="M2845 379 c-4 -6 -5 -13 -2 -16 7 -7 27 6 27 18 0 12 -17 12 -25 -2z"/>
<path d="M3360 380 c0 -5 5 -10 10 -10 6 0 10 5 10 10 0 6 -4 10 -10 10 -5 0
-10 -4 -10 -10z"/>
<path d="M3932 339 c2 -24 9 -44 16 -47 10 -3 12 7 10 39 -2 24 -9 44 -16 47
-10 3 -12 -7 -10 -39z"/>
<path d="M2524 356 c-3 -9 -10 -13 -16 -10 -10 7 -48 -29 -48 -45 0 -5 -5 -11
-12 -13 -6 -2 -12 -15 -14 -29 -1 -13 0 -18 2 -11 3 6 19 12 35 12 16 0 29 5
29 11 0 5 -4 7 -10 4 -5 -3 -10 -1 -10 5 0 15 31 25 39 13 3 -5 14 -10 24 -10
9 0 15 2 12 5 -2 2 2 11 10 19 17 16 20 53 6 53 -5 0 -16 3 -25 6 -10 4 -18 0
-22 -10z"/>
<path d="M5947 333 c-4 -3 -7 -11 -7 -17 0 -6 5 -5 12 2 6 6 9 14 7 17 -3 3
-9 2 -12 -2z"/>
<path d="M5997 314 c6 -16 19 -18 27 -5 3 5 -3 11 -13 14 -14 3 -18 1 -14 -9z"/>
<path d="M2004 284 c-18 -14 -18 -15 4 -4 12 6 22 13 22 15 0 8 -5 6 -26 -11z"/>
<path d="M5820 286 c0 -8 5 -18 10 -21 6 -3 10 3 10 14 0 12 -4 21 -10 21 -5
0 -10 -6 -10 -14z"/>
<path d="M4105 281 c-3 -5 -1 -12 5 -16 5 -3 10 1 10 9 0 18 -6 21 -15 7z"/>
<path d="M1886 265 c-3 -8 -1 -15 4 -15 6 0 10 7 10 15 0 8 -2 15 -4 15 -2 0
-6 -7 -10 -15z"/>
<path d="M1935 260 c-13 -6 -15 -9 -5 -9 8 0 22 4 30 9 18 12 2 12 -25 0z"/>
<path d="M3410 234 c0 -8 5 -12 10 -9 6 4 8 11 5 16 -9 14 -15 11 -15 -7z"/>
<path d="M2471 221 c-16 -12 -20 -20 -12 -25 13 -8 61 19 61 34 0 16 -23 11
-49 -9z"/>
<path d="M2577 226 c-6 -16 2 -28 14 -20 12 7 11 34 0 34 -5 0 -11 -6 -14 -14z"/>
<path d="M5743 224 c-7 -20 8 -36 25 -25 14 8 6 41 -9 41 -5 0 -12 -7 -16 -16z"/>
<path d="M2251 178 c-1 -9 -7 -18 -13 -21 -9 -3 -7 -7 5 -12 24 -10 29 -3 18
26 -7 16 -10 18 -10 7z"/>
<path d="M3457 166 c-4 -10 -5 -21 -2 -24 9 -9 17 6 13 25 -3 17 -4 17 -11 -1z"/>
<path d="M4126 95 c4 -8 8 -15 10 -15 2 0 4 7 4 15 0 8 -4 15 -10 15 -5 0 -7
-7 -4 -15z"/>
<path d="M5486 95 c4 -8 12 -15 20 -15 8 0 14 7 14 15 0 8 -9 15 -20 15 -13 0
-18 -5 -14 -15z"/>
<path d="M5771 44 c0 -11 3 -14 6 -6 3 7 2 16 -1 19 -3 4 -6 -2 -5 -13z"/>
<path d="M4160 36 c0 -9 5 -16 10 -16 6 0 10 4 10 9 0 6 -4 13 -10 16 -5 3
-10 -1 -10 -9z"/>
<path d="M4087 20 c-3 -11 -1 -20 4 -20 5 0 9 2 9 4 0 2 3 11 6 20 3 9 2 16
-4 16 -5 0 -12 -9 -15 -20z"/>
<path d="M5717 33 c-10 -9 -8 -33 2 -33 5 0 11 9 14 20 5 20 -3 26 -16 13z"/>
</g>
</svg>
